<?xml version="1.0" encoding="UTF-8" standalone="no"?>
<!-- Created with Inkscape (http://www.inkscape.org/) -->

<svg
   xmlns:dc="http://purl.org/dc/elements/1.1/"
   xmlns:cc="http://creativecommons.org/ns#"
   xmlns:rdf="http://www.w3.org/1999/02/22-rdf-syntax-ns#"
   xmlns:svg="http://www.w3.org/2000/svg"
   xmlns="http://www.w3.org/2000/svg"
   xmlns:xlink="http://www.w3.org/1999/xlink"
   version="1.2"
   width="641.18311"
   height="278.94052"
   id="svg2">
  <defs
     id="defs4" />
  <metadata
     id="metadata7">
    <rdf:RDF>
      <cc:Work
         rdf:about="">
        <dc:format>image/svg+xml</dc:format>
        <dc:type
           rdf:resource="http://purl.org/dc/dcmitype/StillImage" />
        <dc:title></dc:title>
      </cc:Work>
    </rdf:RDF>
  </metadata>
  <g
     transform="translate(-20.450655,-122.19061)"
     id="layer1">
    <path
       d="m 35.335034,378.65135 50.507627,-28.28427 61.660459,-1.01541 48.2676,-24.97898 -5.58648,-7.71881 -45.75273,16.03553 -26.26397,-0.50508 30.23805,-2.97444 0.0613,-8.61167 -53.532826,0.47444 -62.629458,24.24366 z"
       id="path2985"
       style="fill:#f4ab5a;fill-opacity:1;stroke:#000000;stroke-width:1px;stroke-linecap:butt;stroke-linejoin:miter;stroke-opacity:1" />
    <path
       d="m 224.25388,299.29346 a 104.04572,20.708128 0 1 1 -208.09145,0 104.04572,20.708128 0 1 1 208.09145,0 z"
       transform="translate(6.7882249,0)"
       id="path2987"
       style="fill:#a3a3a3;fill-opacity:1;stroke:#707070;stroke-width:5;stroke-miterlimit:4;stroke-opacity:1;stroke-dasharray:none" />
    <g
       transform="matrix(1.137098,0,0,1.137098,119.85275,-32.001411)"
       id="g3003">
      <g
         transform="translate(-95.459416,67.175144)"
         id="g3800">
        <path
           d="m 94.530507,105.0379 c 0,0 -1.908587,-0.75074 -0.05471,5.71031 1.785719,6.2235 -1.621146,20.13389 -2.73372,25.24246 -2.28787,10.50514 -8.206305,21.1 -9.41094,31.69563 -1.257615,11.06166 2.423659,21.34087 2.439872,32.4385 0.01214,8.28045 -2.788427,24.76222 -2.788427,24.76222 23.991128,6.31345 40.432198,0 40.432198,0 0,0 -2.81566,-15.82038 -2.78842,-23.77173 0.0386,-11.26912 4.26276,-21.46575 2.78842,-32.68612 -1.43589,-10.92761 -9.04257,-21.81396 -11.15371,-32.68612 -0.98439,-5.06951 -3.69356,-18.58464 -1.1171,-24.45801 2.64521,-6.0301 1.1171,-6.24714 1.1171,-6.24714 0,5.20007 -17.216111,5.38977 -16.730566,0 z"
           id="path2989"
           style="fill:none;stroke:#000000;stroke-width:1.16332877px;stroke-linecap:butt;stroke-linejoin:miter;stroke-opacity:1" />
        <path
           d="m 84.600277,157.11449 c 0,0 19.950513,7.57614 35.102803,-0.25254"
           id="path2991"
           style="fill:none;stroke:#000000;stroke-width:1px;stroke-linecap:butt;stroke-linejoin:miter;stroke-opacity:1" />
        <path
           d="m 82.074896,177.8518 c 0,0 19.697974,6.81853 40.153564,0"
           id="path2993"
           style="fill:none;stroke:#000000;stroke-width:1px;stroke-linecap:butt;stroke-linejoin:miter;stroke-opacity:1" />
        <path
           d="m 94.344275,105.09624 c 0,0 8.439235,-5.327384 16.630255,0.25368"
           id="path2995"
           style="fill:none;stroke:#000000;stroke-width:1.98275018;stroke-linecap:round;stroke-linejoin:miter;stroke-miterlimit:4;stroke-opacity:1;stroke-dasharray:none" />
        <path
           d="m 222.01637,231.41755 c -5.48111,-0.2931 -10.86389,-1.04834 -15.75085,-2.20994 -1.55661,-0.37 -1.66745,-0.41597 -1.60813,-0.66703 0.10734,-0.45432 1.16209,-7.69675 1.50121,-10.30803 0.79943,-6.15591 1.11176,-10.08164 1.11006,-13.95274 -0.002,-3.87649 -0.30326,-6.98254 -1.40365,-14.4578 -0.39338,-2.67242 -0.90149,-6.72783 -0.84946,-6.77987 0.026,-0.0259 0.80761,0.15189 1.73703,0.39519 3.22872,0.84519 6.72285,1.45358 11.03844,1.92197 2.83832,0.30806 10.78196,0.31199 13.54329,0.007 4.01519,-0.44392 7.69052,-1.13661 10.63257,-2.00391 1.91224,-0.56372 1.89403,-0.56135 1.89403,-0.24608 0,0.48518 -0.50468,3.91514 -1.27471,8.66318 -1.20987,7.46017 -1.41994,9.46497 -1.42233,13.57392 -0.002,3.55997 0.0809,4.83508 0.62846,9.65959 0.36598,3.22449 0.74319,5.92819 1.45101,10.40043 0.27883,1.76171 0.4798,3.27388 0.44661,3.36038 -0.0655,0.17075 -2.09978,0.76322 -4.31159,1.25575 -1.87032,0.41648 -5.1156,0.90734 -7.57614,1.14592 -1.91529,0.18571 -8.01863,0.33688 -9.78585,0.24238 l 0,0 z"
           transform="translate(-122.0051,-4.3400845)"
           id="path3792"
           style="fill:#2b1100;fill-opacity:1;stroke:none" />
        <path
           d="m 221.70069,184.69718 c -0.34724,-0.0264 -1.45525,-0.1078 -2.46224,-0.18089 -2.32605,-0.16881 -4.28592,-0.41433 -7.07107,-0.88579 -2.35858,-0.39926 -6.82409,-1.4555 -7.13233,-1.68703 -0.14227,-0.10687 -0.21922,-0.69836 -0.32858,-2.52579 -0.2663,-4.44978 0.18198,-8.92281 1.34537,-13.42452 0.30169,-1.16736 1.05718,-3.72281 1.12156,-3.79369 0.0164,-0.018 0.67792,0.16291 1.47014,0.40202 3.64825,1.10117 6.9769,1.78317 11.22625,2.30013 2.8566,0.34752 8.75539,0.31529 11.36422,-0.0621 3.36671,-0.48702 6.24918,-1.24719 8.68687,-2.29093 0.46554,-0.19933 0.88472,-0.32365 0.9315,-0.27626 0.28644,0.29011 1.70048,4.49961 2.25578,6.71527 0.73092,2.91643 0.90354,4.33528 0.97158,7.98596 0.0346,1.85743 0.0235,3.69302 -0.0247,4.07909 -0.10167,0.81373 0.0237,0.73629 -2.24107,1.3839 -3.33178,0.95271 -7.01123,1.63087 -10.94736,2.01769 -1.86972,0.18375 -7.85716,0.34244 -9.16587,0.24293 l 0,0 z"
           transform="translate(-122.0051,-4.3400845)"
           id="path3794"
           style="fill:#ff6600;fill-opacity:1;stroke:none" />
        <path
           d="m 213.01592,144.61385 c 0,0 3.52,-1.06175 5.3033,-0.88388 1.88235,0.18775 3.41419,1.92137 5.3033,2.0203 2.13082,0.11159 4.05349,-1.62619 6.18718,-1.6415 1.56182,-0.0112 4.54569,1.13643 4.54569,1.13643"
           transform="translate(-122.0051,-4.3400845)"
           id="path3796"
           style="fill:none;stroke:#000000;stroke-width:1px;stroke-linecap:butt;stroke-linejoin:miter;stroke-opacity:1" />
        <path
           d="m 222.45962,164.17703 c -4.48074,-0.30211 -9.55548,-1.23361 -13.71726,-2.51789 -1.23404,-0.38081 -1.26753,-0.40098 -1.18847,-0.71598 0.0447,-0.17827 0.62267,-1.83625 1.28428,-3.68441 2.45954,-6.8706 3.32319,-9.33219 3.77133,-10.74922 l 0.45991,-1.45428 1.60086,-0.36991 c 0.94589,-0.21857 2.10109,-0.39144 2.82352,-0.42254 l 1.22267,-0.0526 1.87092,0.89497 c 1.02901,0.49223 2.16366,0.95677 2.52144,1.0323 0.90113,0.19024 1.87793,-0.007 3.89517,-0.78619 2.13067,-0.82309 2.92015,-0.89767 4.68631,-0.44269 0.68711,0.17701 1.5307,0.42632 1.87464,0.55402 l 0.62535,0.23218 0.64931,1.76587 c 0.78135,2.12494 1.76115,4.52316 3.95953,9.69153 0.90889,2.13678 1.65252,3.94157 1.65252,4.01064 0,0.0691 -0.32672,0.27019 -0.72605,0.44695 -4.54975,2.01394 -11.07744,2.98454 -17.26598,2.56727 l 0,0 z"
           transform="translate(-122.0051,-4.3400845)"
           id="path3798"
           style="fill:#2b1100;fill-opacity:1;stroke:none" />
      </g>
    </g>
    <g
       transform="translate(30,58)"
       id="g3009"
       style="fill:#99ebff;fill-opacity:1;stroke:#5a90ff;stroke-opacity:1">
      <path
         d="m 106.31855,79.206474 a 6.1871843,6.1871843 0 1 1 -12.374364,0 6.1871843,6.1871843 0 1 1 12.374364,0 z"
         transform="translate(-1.0101525,10.85914)"
         id="path2997"
         style="fill:#99ebff;fill-opacity:1;stroke:#5a90ff;stroke-width:2;stroke-miterlimit:4;stroke-opacity:1;stroke-dasharray:none" />
      <path
         d="m 106.31855,79.206474 a 6.1871843,6.1871843 0 1 1 -12.374364,0 6.1871843,6.1871843 0 1 1 12.374364,0 z"
         transform="matrix(0.6661958,0,0,0.6661958,45.419833,25.808109)"
         id="path2999"
         style="fill:#99ebff;fill-opacity:1;stroke:#5a90ff;stroke-width:2;stroke-miterlimit:4;stroke-opacity:1;stroke-dasharray:none" />
      <path
         d="m 106.31855,79.206474 a 6.1871843,6.1871843 0 1 1 -12.374364,0 6.1871843,6.1871843 0 1 1 12.374364,0 z"
         transform="matrix(0.4553721,0,0,0.4553721,60.97406,31.395033)"
         id="path3001"
         style="fill:#99ebff;fill-opacity:1;stroke:#5a90ff;stroke-width:2;stroke-miterlimit:4;stroke-opacity:1;stroke-dasharray:none" />
    </g>
    <path
       d="m 124.21287,203.63883 c -2.37862,-1.18039 -3.11521,-1.38978 -4.49126,-1.2767 -0.96074,0.0789 -3.81143,0.60127 -4.29561,0.78707 -0.19235,0.0738 -0.21413,0.0401 -0.14082,-0.21809 0.30198,-1.06351 0.91278,-3.60288 1.45537,-6.05065 2.25602,-10.17734 3.17409,-16.39387 3.16815,-21.45251 -0.003,-2.30027 -0.19749,-3.80921 -0.81329,-6.3002 -0.4706,-1.90363 -0.6749,-3.18321 -0.50824,-3.18321 0.0549,0 0.39365,0.27783 0.7527,0.6174 0.75087,0.71014 1.35246,1.04221 2.77639,1.53253 3.33757,1.14925 8.33013,1.13822 11.93689,-0.0264 1.03642,-0.33465 2.36589,-0.99549 2.89009,-1.43658 0.22197,-0.18677 0.43974,-0.30342 0.48395,-0.25921 0.11049,0.11049 -0.2357,1.18435 -1.10362,3.42345 -0.40379,1.04172 -0.82992,2.26337 -0.94696,2.71478 -1.20609,4.65189 -0.79837,12.11162 1.27673,23.35978 0.6172,3.34551 1.00257,5.11503 1.49434,6.86158 0.27955,0.99284 0.29046,1.1071 0.0986,1.03286 -0.99962,-0.38688 -2.92629,-0.84395 -3.82592,-0.90763 -1.34303,-0.0951 -1.9034,0.0306 -4.21846,0.9459 -1.58281,0.62582 -1.88666,0.70437 -2.90418,0.75085 l -1.13643,0.0519 -1.94846,-0.96694 0,0 z"
       id="path3816"
       style="fill:#d7f8ff;fill-opacity:1;stroke:none" />
    <path
       d="m 126.0982,167.62979 c -3.12446,-0.47634 -4.41696,-0.86188 -5.46579,-1.63039 -0.5196,-0.38072 -1.0982,-1.08128 -1.09973,-1.33155 -7.4e-4,-0.12144 1.84176,-0.928 3.10737,-1.36026 3.35722,-1.14663 7.32265,-1.18033 10.50341,-0.0893 0.87241,0.29925 2.83365,1.26726 3.3642,1.66048 0.23808,0.17644 0.23461,0.19209 -0.12626,0.56952 -0.49832,0.52117 -2.16077,1.32263 -3.40154,1.63986 -1.9135,0.48923 -5.41673,0.76496 -6.88166,0.54162 z"
       id="path3818"
       style="fill:#d7f8ff;fill-opacity:1;stroke:none" />
    <flowRoot
       id="flowRoot3008"
       xml:space="preserve"
       style="font-size:40px;font-style:normal;font-variant:normal;font-weight:normal;font-stretch:normal;line-height:125%;letter-spacing:0px;word-spacing:0px;fill:#000000;fill-opacity:1;stroke:none;font-family:Dancing Script;-inkscape-font-specification:Dancing Script"><flowRegion
         id="flowRegion3010"><rect
           width="398.57144"
           height="125.71429"
           x="252.14285"
           y="110.21932"
           id="rect3012"
           style="font-style:normal;font-variant:normal;font-weight:normal;font-stretch:normal;font-family:Dancing Script;-inkscape-font-specification:Dancing Script" /></flowRegion><flowPara
         id="flowPara3014" /></flowRoot>    <text
       transform="translate(28,-122)"
       id="text3016"
       xml:space="preserve"
       style="font-size:40px;font-style:normal;font-variant:normal;font-weight:normal;font-stretch:normal;line-height:125%;letter-spacing:0px;word-spacing:0px;fill:#2b1100;fill-opacity:1;stroke:none;font-family:Dancing Script;-inkscape-font-specification:Dancing Script"><textPath
         xlink:href="#path3034"
         id="textPath3040"><tspan
   id="tspan3018"
   style="font-size:144px;fill:#2b1100;fill-opacity:1">Tubaina</tspan></textPath></text>
    <path
       d="m 224.36882,401.13112 388.5625,-41.4375 -0.0937,-0.96875 -388.59375,41.40625 0.12499,1 z"
       id="path3034"
       style="font-size:medium;font-style:normal;font-variant:normal;font-weight:normal;font-stretch:normal;text-indent:0;text-align:start;text-decoration:none;line-height:normal;letter-spacing:normal;word-spacing:normal;text-transform:none;direction:ltr;block-progression:tb;writing-mode:lr-tb;text-anchor:start;baseline-shift:baseline;color:#000000;fill:none;stroke:none;stroke-width:1px;marker:none;visibility:visible;display:inline;overflow:visible;enable-background:accumulate;font-family:Sans;-inkscape-font-specification:Sans" />
    <text
       x="262.63965"
       y="357.70212"
       id="text3012"
       xml:space="preserve"
       style="font-size:40px;font-style:normal;font-variant:normal;font-weight:normal;font-stretch:normal;line-height:125%;letter-spacing:0px;word-spacing:0px;fill:#2b1100;fill-opacity:1;stroke:none;font-family:Dancing Script;-inkscape-font-specification:Dancing Script"><tspan
         x="262.63965"
         y="357.70212"
         id="tspan3014"
         style="font-size:72px;font-style:normal;font-variant:normal;font-weight:normal;font-stretch:normal;fill:#2b1100;fill-opacity:1;font-family:Ropa Sans;-inkscape-font-specification:Ropa Sans">AS A SERVICE</tspan></text>
  </g>
</svg>
