<?xml version="1.0" encoding="UTF-8" standalone="no"?>
<!-- Created with Inkscape (http://www.inkscape.org/) -->

<svg
   xmlns:dc="http://purl.org/dc/elements/1.1/"
   xmlns:cc="http://creativecommons.org/ns#"
   xmlns:rdf="http://www.w3.org/1999/02/22-rdf-syntax-ns#"
   xmlns:svg="http://www.w3.org/2000/svg"
   xmlns="http://www.w3.org/2000/svg"
   xmlns:sodipodi="http://sodipodi.sourceforge.net/DTD/sodipodi-0.dtd"
   xmlns:inkscape="http://www.inkscape.org/namespaces/inkscape"
   version="1.2"
   width="637.28961"
   height="256.96317"
   id="svg2"
   inkscape:version="0.48.3.1 r9886"
   sodipodi:docname="taas-logo.svg">
  <sodipodi:namedview
     pagecolor="#ffffff"
     bordercolor="#666666"
     borderopacity="1"
     objecttolerance="10"
     gridtolerance="10"
     guidetolerance="10"
     inkscape:pageopacity="0"
     inkscape:pageshadow="2"
     inkscape:window-width="1280"
     inkscape:window-height="751"
     id="namedview34"
     showgrid="false"
     inkscape:zoom="0.96384324"
     inkscape:cx="319.24828"
     inkscape:cy="75.800916"
     inkscape:window-x="0"
     inkscape:window-y="25"
     inkscape:window-maximized="1"
     inkscape:current-layer="layer1"
     fit-margin-top="0"
     fit-margin-left="0"
     fit-margin-right="0"
     fit-margin-bottom="0" />
  <defs
     id="defs4" />
  <metadata
     id="metadata7">
    <rdf:RDF>
      <cc:Work
         rdf:about="">
        <dc:format>image/svg+xml</dc:format>
        <dc:type
           rdf:resource="http://purl.org/dc/dcmitype/StillImage" />
        <dc:title />
      </cc:Work>
    </rdf:RDF>
  </metadata>
  <g
     transform="translate(-20.450655,-122.18818)"
     id="layer1">
    <path
       d="m 35.335034,378.65135 50.507627,-28.28427 61.660459,-1.01541 48.2676,-24.97898 -5.58648,-7.71881 -45.75273,16.03553 -26.26397,-0.50508 30.23805,-2.97444 0.0613,-8.61167 -53.532826,0.47444 -62.629458,24.24366 z"
       id="path2985"
       style="fill:#f4ab5a;fill-opacity:1;stroke:#000000;stroke-width:1px;stroke-linecap:butt;stroke-linejoin:miter;stroke-opacity:1"
       inkscape:connector-curvature="0" />
    <path
       d="m 224.25388,299.29346 a 104.04573,20.708129 0 1 1 -208.09145,0 104.04573,20.708129 0 1 1 208.09145,0 z"
       transform="translate(6.7882249,0)"
       id="path2987"
       style="fill:#a3a3a3;fill-opacity:1;stroke:#707070;stroke-width:5;stroke-miterlimit:4;stroke-opacity:1;stroke-dasharray:none"
       inkscape:connector-curvature="0" />
    <g
       transform="matrix(1.137098,0,0,1.137098,119.85275,-32.001411)"
       id="g3003">
      <g
         transform="translate(-95.459416,67.175144)"
         id="g3800">
        <path
           d="m 94.530507,105.0379 c 0,0 -1.908587,-0.75074 -0.05471,5.71031 1.785719,6.2235 -1.621146,20.13389 -2.73372,25.24246 -2.28787,10.50514 -8.206305,21.1 -9.41094,31.69563 -1.257615,11.06166 2.423659,21.34087 2.439872,32.4385 0.01214,8.28045 -2.788427,24.76222 -2.788427,24.76222 23.991128,6.31345 40.432198,0 40.432198,0 0,0 -2.81566,-15.82038 -2.78842,-23.77173 0.0386,-11.26912 4.26276,-21.46575 2.78842,-32.68612 -1.43589,-10.92761 -9.04257,-21.81396 -11.15371,-32.68612 -0.98439,-5.06951 -3.69356,-18.58464 -1.1171,-24.45801 2.64521,-6.0301 1.1171,-6.24714 1.1171,-6.24714 0,5.20007 -17.216111,5.38977 -16.730566,0 z"
           id="path2989"
           style="fill:none;stroke:#000000;stroke-width:1.16332877px;stroke-linecap:butt;stroke-linejoin:miter;stroke-opacity:1"
           inkscape:connector-curvature="0" />
        <path
           d="m 84.600277,157.11449 c 0,0 19.950513,7.57614 35.102803,-0.25254"
           id="path2991"
           style="fill:none;stroke:#000000;stroke-width:1px;stroke-linecap:butt;stroke-linejoin:miter;stroke-opacity:1"
           inkscape:connector-curvature="0" />
        <path
           d="m 82.074896,177.8518 c 0,0 19.697974,6.81853 40.153564,0"
           id="path2993"
           style="fill:none;stroke:#000000;stroke-width:1px;stroke-linecap:butt;stroke-linejoin:miter;stroke-opacity:1"
           inkscape:connector-curvature="0" />
        <path
           d="m 94.344275,105.09624 c 0,0 8.439235,-5.327384 16.630255,0.25368"
           id="path2995"
           style="fill:none;stroke:#000000;stroke-width:1.98275018;stroke-linecap:round;stroke-linejoin:miter;stroke-miterlimit:4;stroke-opacity:1;stroke-dasharray:none"
           inkscape:connector-curvature="0" />
        <path
           d="m 222.01637,231.41755 c -5.48111,-0.2931 -10.86389,-1.04834 -15.75085,-2.20994 -1.55661,-0.37 -1.66745,-0.41597 -1.60813,-0.66703 0.10734,-0.45432 1.16209,-7.69675 1.50121,-10.30803 0.79943,-6.15591 1.11176,-10.08164 1.11006,-13.95274 -0.002,-3.87649 -0.30326,-6.98254 -1.40365,-14.4578 -0.39338,-2.67242 -0.90149,-6.72783 -0.84946,-6.77987 0.026,-0.0259 0.80761,0.15189 1.73703,0.39519 3.22872,0.84519 6.72285,1.45358 11.03844,1.92197 2.83832,0.30806 10.78196,0.31199 13.54329,0.007 4.01519,-0.44392 7.69052,-1.13661 10.63257,-2.00391 1.91224,-0.56372 1.89403,-0.56135 1.89403,-0.24608 0,0.48518 -0.50468,3.91514 -1.27471,8.66318 -1.20987,7.46017 -1.41994,9.46497 -1.42233,13.57392 -0.002,3.55997 0.0809,4.83508 0.62846,9.65959 0.36598,3.22449 0.74319,5.92819 1.45101,10.40043 0.27883,1.76171 0.4798,3.27388 0.44661,3.36038 -0.0655,0.17075 -2.09978,0.76322 -4.31159,1.25575 -1.87032,0.41648 -5.1156,0.90734 -7.57614,1.14592 -1.91529,0.18571 -8.01863,0.33688 -9.78585,0.24238 l 0,0 z"
           transform="translate(-122.0051,-4.3400845)"
           id="path3792"
           style="fill:#2b1100;fill-opacity:1;stroke:none"
           inkscape:connector-curvature="0" />
        <path
           d="m 221.70069,184.69718 c -0.34724,-0.0264 -1.45525,-0.1078 -2.46224,-0.18089 -2.32605,-0.16881 -4.28592,-0.41433 -7.07107,-0.88579 -2.35858,-0.39926 -6.82409,-1.4555 -7.13233,-1.68703 -0.14227,-0.10687 -0.21922,-0.69836 -0.32858,-2.52579 -0.2663,-4.44978 0.18198,-8.92281 1.34537,-13.42452 0.30169,-1.16736 1.05718,-3.72281 1.12156,-3.79369 0.0164,-0.018 0.67792,0.16291 1.47014,0.40202 3.64825,1.10117 6.9769,1.78317 11.22625,2.30013 2.8566,0.34752 8.75539,0.31529 11.36422,-0.0621 3.36671,-0.48702 6.24918,-1.24719 8.68687,-2.29093 0.46554,-0.19933 0.88472,-0.32365 0.9315,-0.27626 0.28644,0.29011 1.70048,4.49961 2.25578,6.71527 0.73092,2.91643 0.90354,4.33528 0.97158,7.98596 0.0346,1.85743 0.0235,3.69302 -0.0247,4.07909 -0.10167,0.81373 0.0237,0.73629 -2.24107,1.3839 -3.33178,0.95271 -7.01123,1.63087 -10.94736,2.01769 -1.86972,0.18375 -7.85716,0.34244 -9.16587,0.24293 l 0,0 z"
           transform="translate(-122.0051,-4.3400845)"
           id="path3794"
           style="fill:#ff6600;fill-opacity:1;stroke:none"
           inkscape:connector-curvature="0" />
        <path
           d="m 213.01592,144.61385 c 0,0 3.52,-1.06175 5.3033,-0.88388 1.88235,0.18775 3.41419,1.92137 5.3033,2.0203 2.13082,0.11159 4.05349,-1.62619 6.18718,-1.6415 1.56182,-0.0112 4.54569,1.13643 4.54569,1.13643"
           transform="translate(-122.0051,-4.3400845)"
           id="path3796"
           style="fill:none;stroke:#000000;stroke-width:1px;stroke-linecap:butt;stroke-linejoin:miter;stroke-opacity:1"
           inkscape:connector-curvature="0" />
        <path
           d="m 222.45962,164.17703 c -4.48074,-0.30211 -9.55548,-1.23361 -13.71726,-2.51789 -1.23404,-0.38081 -1.26753,-0.40098 -1.18847,-0.71598 0.0447,-0.17827 0.62267,-1.83625 1.28428,-3.68441 2.45954,-6.8706 3.32319,-9.33219 3.77133,-10.74922 l 0.45991,-1.45428 1.60086,-0.36991 c 0.94589,-0.21857 2.10109,-0.39144 2.82352,-0.42254 l 1.22267,-0.0526 1.87092,0.89497 c 1.02901,0.49223 2.16366,0.95677 2.52144,1.0323 0.90113,0.19024 1.87793,-0.007 3.89517,-0.78619 2.13067,-0.82309 2.92015,-0.89767 4.68631,-0.44269 0.68711,0.17701 1.5307,0.42632 1.87464,0.55402 l 0.62535,0.23218 0.64931,1.76587 c 0.78135,2.12494 1.76115,4.52316 3.95953,9.69153 0.90889,2.13678 1.65252,3.94157 1.65252,4.01064 0,0.0691 -0.32672,0.27019 -0.72605,0.44695 -4.54975,2.01394 -11.07744,2.98454 -17.26598,2.56727 l 0,0 z"
           transform="translate(-122.0051,-4.3400845)"
           id="path3798"
           style="fill:#2b1100;fill-opacity:1;stroke:none"
           inkscape:connector-curvature="0" />
      </g>
    </g>
    <g
       transform="translate(30,58)"
       id="g3009"
       style="fill:#99ebff;fill-opacity:1;stroke:#5a90ff;stroke-opacity:1">
      <path
         d="m 106.31855,79.206474 a 6.1871843,6.1871843 0 1 1 -12.374364,0 6.1871843,6.1871843 0 1 1 12.374364,0 z"
         transform="translate(-1.0101525,10.85914)"
         id="path2997"
         style="fill:#99ebff;fill-opacity:1;stroke:#5a90ff;stroke-width:2;stroke-miterlimit:4;stroke-opacity:1;stroke-dasharray:none"
         inkscape:connector-curvature="0" />
      <path
         d="m 106.31855,79.206474 a 6.1871843,6.1871843 0 1 1 -12.374364,0 6.1871843,6.1871843 0 1 1 12.374364,0 z"
         transform="matrix(0.6661958,0,0,0.6661958,45.419833,25.808109)"
         id="path2999"
         style="fill:#99ebff;fill-opacity:1;stroke:#5a90ff;stroke-width:2;stroke-miterlimit:4;stroke-opacity:1;stroke-dasharray:none"
         inkscape:connector-curvature="0" />
      <path
         d="m 106.31855,79.206474 a 6.1871843,6.1871843 0 1 1 -12.374364,0 6.1871843,6.1871843 0 1 1 12.374364,0 z"
         transform="matrix(0.4553721,0,0,0.4553721,60.97406,31.395033)"
         id="path3001"
         style="fill:#99ebff;fill-opacity:1;stroke:#5a90ff;stroke-width:2;stroke-miterlimit:4;stroke-opacity:1;stroke-dasharray:none"
         inkscape:connector-curvature="0" />
    </g>
    <path
       d="m 124.21287,203.63883 c -2.37862,-1.18039 -3.11521,-1.38978 -4.49126,-1.2767 -0.96074,0.0789 -3.81143,0.60127 -4.29561,0.78707 -0.19235,0.0738 -0.21413,0.0401 -0.14082,-0.21809 0.30198,-1.06351 0.91278,-3.60288 1.45537,-6.05065 2.25602,-10.17734 3.17409,-16.39387 3.16815,-21.45251 -0.003,-2.30027 -0.19749,-3.80921 -0.81329,-6.3002 -0.4706,-1.90363 -0.6749,-3.18321 -0.50824,-3.18321 0.0549,0 0.39365,0.27783 0.7527,0.6174 0.75087,0.71014 1.35246,1.04221 2.77639,1.53253 3.33757,1.14925 8.33013,1.13822 11.93689,-0.0264 1.03642,-0.33465 2.36589,-0.99549 2.89009,-1.43658 0.22197,-0.18677 0.43974,-0.30342 0.48395,-0.25921 0.11049,0.11049 -0.2357,1.18435 -1.10362,3.42345 -0.40379,1.04172 -0.82992,2.26337 -0.94696,2.71478 -1.20609,4.65189 -0.79837,12.11162 1.27673,23.35978 0.6172,3.34551 1.00257,5.11503 1.49434,6.86158 0.27955,0.99284 0.29046,1.1071 0.0986,1.03286 -0.99962,-0.38688 -2.92629,-0.84395 -3.82592,-0.90763 -1.34303,-0.0951 -1.9034,0.0306 -4.21846,0.9459 -1.58281,0.62582 -1.88666,0.70437 -2.90418,0.75085 l -1.13643,0.0519 -1.94846,-0.96694 0,0 z"
       id="path3816"
       style="fill:#d7f8ff;fill-opacity:1;stroke:none"
       inkscape:connector-curvature="0" />
    <path
       d="m 126.0982,167.62979 c -3.12446,-0.47634 -4.41696,-0.86188 -5.46579,-1.63039 -0.5196,-0.38072 -1.0982,-1.08128 -1.09973,-1.33155 -7.4e-4,-0.12144 1.84176,-0.928 3.10737,-1.36026 3.35722,-1.14663 7.32265,-1.18033 10.50341,-0.0893 0.87241,0.29925 2.83365,1.26726 3.3642,1.66048 0.23808,0.17644 0.23461,0.19209 -0.12626,0.56952 -0.49832,0.52117 -2.16077,1.32263 -3.40154,1.63986 -1.9135,0.48923 -5.41673,0.76496 -6.88166,0.54162 z"
       id="path3818"
       style="fill:#d7f8ff;fill-opacity:1;stroke:none"
       inkscape:connector-curvature="0" />
    <g
       transform="translate(28,-44)"
       style="font-size:40px;font-style:normal;font-variant:normal;font-weight:normal;font-stretch:normal;line-height:125%;letter-spacing:0px;word-spacing:0px;fill:#2b1100;fill-opacity:1;stroke:none;font-family:Dancing Script;-inkscape-font-specification:Dancing Script"
       id="text3016">
      <path
         d="m 224.59815,235.58264 c -0.22763,-8.47153 10.9704,-13.91367 33.59413,-16.32644 7.15936,-0.76339 15.66344,-1.1393 25.51226,-1.12772 9.94416,0.002 16.9209,-0.21142 20.93024,-0.63909 -4.58093,5.02621 -12.50341,8.13988 -23.76747,9.34102 -1.0501,0.11208 -2.72063,0.29023 -5.01158,0.53445 -2.30124,0.14896 -4.02459,0.28447 -5.17005,0.40653 -5.74075,20.40388 -10.80632,43.96989 -15.19673,70.69811 -0.17442,1.08061 -0.50603,2.95031 -0.9948,5.60911 -0.40356,2.55321 -0.69762,4.32237 -0.88216,5.30747 l -0.52895,4.54572 c -0.26354,2.05555 -0.48759,3.57588 -0.67213,4.561 l -0.31892,3.79924 c -0.20881,1.66352 -0.35266,3.03048 -0.43157,4.10088 0.0165,1.06023 0.0432,2.21591 0.0801,3.46706 0.047,1.34659 0.13165,2.59265 0.25383,3.73816 0.15268,1.43187 0.31239,2.47682 0.47913,3.13486 -7.54126,0.80421 -11.67326,-2.18246 -12.39603,-8.96002 -0.39703,-3.72289 0.62581,-10.8797 3.06854,-21.47045 7.31793,-31.86764 14.39773,-57.8207 21.23942,-77.85926 -17.05659,2.10869 -30.319,4.48848 -39.78726,7.13937"
         style="font-size:144px;fill:#2b1100;fill-opacity:1"
         id="path3007"
         inkscape:connector-curvature="0" />
      <path
         d="m 282.29379,310.67184 c -0.58026,-5.44113 0.27203,-12.38666 2.55686,-20.83662 2.28484,-8.44989 4.4773,-12.78683 6.5774,-13.01083 1.8137,-0.19338 3.68149,0.57288 5.60336,2.29877 -1.66871,3.36395 -3.28525,8.1222 -4.84963,14.27475 -1.57458,6.05714 -2.13281,11.23352 -1.6747,15.52914 0.68205,6.39574 2.74134,9.41037 6.17786,9.04388 1.24095,-0.13233 2.47874,-0.74706 3.71338,-1.84417 1.33006,-1.10728 2.61433,-2.64413 3.85281,-4.61055 1.22826,-2.06187 2.36617,-4.06583 3.41374,-6.0119 1.13279,-2.05168 2.26753,-4.53802 3.40422,-7.45904 l 2.97466,-7.41324 2.70355,-7.23951 c 0.94571,-2.9006 1.61651,-4.75821 2.0124,-5.57282 4.67359,0.37053 7.09694,1.36717 7.27004,2.98993 0.0305,0.28642 -0.57221,2.32985 -1.80812,6.1303 -1.24618,3.70506 -2.43124,7.98285 -3.55518,12.83336 -1.02855,4.84037 -1.3952,8.6447 -1.09994,11.41299 0.40716,3.81835 2.18583,5.55956 5.336,5.22361 3.24556,-0.34611 6.98313,-2.86867 11.21273,-7.56769 4.21932,-4.79444 7.62797,-10.85406 10.22594,-18.17887 l 1.99888,1.09018 c -2.24035,7.96248 -5.8641,14.72085 -10.87129,20.27513 -4.92202,5.44866 -9.96038,8.44784 -15.11511,8.99756 -6.68214,0.7126 -10.39985,-2.46307 -11.15314,-9.52701 -0.20363,-1.90917 -0.12403,-4.33126 0.23881,-7.2663 -5.41981,12.54949 -11.04119,19.13471 -16.86415,19.7557 -3.15015,0.33593 -5.88023,-0.82109 -8.19026,-3.47106 -2.29985,-2.55452 -3.66356,-5.83642 -4.09112,-9.84569"
         style="font-size:144px;fill:#2b1100;fill-opacity:1"
         id="path3009"
         inkscape:connector-curvature="0" />
      <path
         d="m 343.78157,306.72129 c -0.96709,-9.06856 0.59363,-21.59266 4.68216,-37.57235 4.184,-15.98977 9.23471,-30.18941 15.15217,-42.59895 5.91742,-12.40936 10.78531,-18.81769 14.60369,-19.22499 1.43184,-0.1526 2.63142,0.68492 3.59872,2.51255 1.05251,1.7222 1.70095,3.72875 1.94531,6.01966 0.47842,4.48665 -0.42285,10.52023 -2.70381,18.10077 -2.19575,7.47506 -5.53697,15.07219 -10.02367,22.79143 -4.40147,7.61372 -9.10198,13.32839 -14.10153,17.14402 -0.99665,2.42339 -2.01816,6.87681 -3.06453,13.3603 -0.95092,6.47335 -1.14643,12.33513 -0.58652,17.58534 0.95691,8.97312 4.06048,13.17973 9.31072,12.61983 2.76829,-0.29522 5.50988,-1.74612 8.22481,-4.35271 2.72505,-2.51113 4.80611,-5.62939 6.2432,-9.35479 -3.52432,-1.36194 -6.37148,-3.61674 -8.54147,-6.76438 -2.18021,-3.24308 -3.47391,-6.7738 -3.88109,-10.59217 -0.47848,-4.48653 0.28018,-8.23611 2.27599,-11.24877 2.08104,-3.11822 4.7921,-4.8555 8.13318,-5.21185 2.76828,-0.29517 5.08598,0.61619 6.95314,2.7341 1.86708,2.11798 3.0246,5.27705 3.47255,9.4772 0.67185,6.3003 -0.30644,12.96963 -2.93486,20.00803 1.17601,0.16422 2.43224,0.17507 3.7687,0.0325 2.38643,-0.25449 4.53617,-0.91819 6.44923,-1.99111 1.90278,-1.16836 3.47343,-2.73575 4.71194,-4.70218 1.33386,-1.97657 2.35913,-3.67889 3.07579,-5.10696 0.80183,-1.53365 1.61073,-3.45426 2.42669,-5.76181 l 1.91676,1.6782 c -3.32609,11.36077 -9.57112,17.52978 -18.73511,18.50705 -1.62284,0.17307 -3.16544,0.19277 -4.62783,0.0591 -5.17032,11.2678 -12.19429,17.37506 -21.07193,18.32181 -4.86841,0.51917 -8.71662,-0.71169 -11.54466,-3.6926 -2.81787,-2.88546 -4.52711,-7.14422 -5.12774,-12.77629 m 14.13258,-38.58017 c 5.59016,-5.51986 10.64137,-13.83035 15.15366,-24.93149 4.59751,-11.20664 6.67232,-18.91008 6.22443,-23.11035 -0.0815,-0.76358 -0.31311,-1.12505 -0.69491,-1.08443 -1.05008,0.11208 -2.95358,2.63213 -5.7105,7.56018 -2.66153,4.91804 -5.49934,11.35123 -8.51344,19.2996 -3.02432,7.85304 -5.1774,15.2752 -6.45924,22.26649 m 11.81351,18.43522 c 0.73294,6.87305 3.5533,11.59258 8.46111,14.1586 1.6967,-4.9116 2.28038,-9.84933 1.75105,-14.81321 -0.34615,-3.24556 -1.0983,-5.77204 -2.25646,-7.57945 -1.07294,-1.91298 -2.2776,-2.79822 -3.61399,-2.65574 -1.43191,0.15274 -2.61371,1.29248 -3.54541,3.41924 -0.83629,2.11664 -1.10172,4.60683 -0.7963,7.47056"
         style="font-size:144px;fill:#2b1100;fill-opacity:1"
         id="path3011"
         inkscape:connector-curvature="0" />
      <path
         d="m 398.24231,303.37531 c -0.60061,-5.63206 0.6895,-12.09329 3.87034,-19.38371 3.2763,-7.30056 7.79991,-13.76871 13.57083,-19.40449 5.7709,-5.63568 11.61557,-8.76913 17.53404,-9.40034 3.72285,-0.39697 6.93215,0.2745 9.62789,2.0144 2.69566,1.74 4.21149,4.18504 4.54747,7.33513 0.4377,4.10477 -1.68217,6.40654 -6.3596,6.90532 0.29401,-1.76912 0.35451,-3.46509 0.18149,-5.08793 -0.57012,-5.34564 -3.1939,-7.76907 -7.87134,-7.2703 -4.20021,0.44797 -8.42718,3.36062 -12.68091,8.73797 -4.16849,5.27179 -7.43903,11.26841 -9.81164,17.98988 -2.28735,6.61587 -3.18161,12.26253 -2.68278,16.94 0.39701,3.72289 1.88422,5.4469 4.46161,5.17204 1.71824,-0.18324 3.63635,-1.20841 5.75431,-3.07553 2.11793,-1.86712 4.0246,-3.90479 5.72001,-6.11303 1.69537,-2.20822 3.65361,-5.1203 5.87472,-8.73623 2.30634,-3.72153 3.98329,-6.55533 5.03086,-8.50141 l 4.36073,-7.9955 c 3.88957,0.26104 5.92599,1.25068 6.10928,2.9689 0.0814,0.7637 -0.99736,3.77507 -3.23626,9.03412 -2.23898,5.25909 -3.22102,9.17731 -2.94612,11.75468 0.17302,1.62281 0.71265,3.0617 1.61887,4.31667 0.99143,1.14935 2.29857,1.63749 3.92141,1.46443 2.76825,-0.29522 6.0438,-2.62369 9.82665,-6.98542 3.77257,-4.45717 7.32949,-10.48433 10.67078,-18.0815 l 1.58458,1.27918 c -2.14489,7.9523 -5.67827,14.65276 -10.60018,20.1014 -4.82656,5.43848 -9.81719,8.43257 -14.97192,8.98229 -3.34109,0.3563 -6.02536,-0.37115 -8.05283,-2.18236 -1.92188,-1.72593 -3.03042,-3.97305 -3.32561,-6.74136 -0.12219,-1.14549 -0.12661,-2.54491 -0.0133,-4.19826 -3.68487,6.18563 -7.10302,10.7981 -10.25447,13.83742 -3.05603,3.02914 -6.25456,4.72186 -9.59561,5.07817 -3.15014,0.33593 -5.79177,-0.44435 -7.92491,-2.34083 -2.21841,-1.79086 -3.53121,-4.59545 -3.93842,-8.4138"
         style="font-size:144px;fill:#2b1100;fill-opacity:1"
         id="path3013"
         inkscape:connector-curvature="0" />
      <path
         d="m 463.27843,293.25371 c -0.39701,-3.72288 0.0709,-8.84135 1.4036,-15.35542 1.33275,-6.51402 3.3897,-12.57431 6.17086,-18.18088 2.78115,-5.60648 5.69906,-8.57262 8.75375,-8.89843 2.10008,-0.22391 3.2621,0.71415 3.48608,2.81419 0.12214,1.14556 -0.83887,3.90301 -2.88304,8.27237 -2.0442,4.36944 -4.0273,9.31159 -5.94932,14.82647 -1.93221,5.41947 -2.68962,10.0861 -2.27224,13.99989 0.3563,3.34106 1.12564,5.57608 2.30803,6.70506 1.26766,1.02335 3.14245,1.40268 5.62439,1.13799 7.44576,-0.79403 14.0173,-8.88048 19.71465,-24.25935 l 1.4414,1.29445 c -1.81776,8.30359 -5.1125,14.9786 -9.88424,20.02505 -4.67633,5.03628 -9.87825,7.85982 -15.60575,8.47062 -3.53198,0.37666 -6.37471,-0.47872 -8.5282,-2.56612 -2.14332,-1.99195 -3.4033,-4.75391 -3.77997,-8.28589 m 16.12245,-60.65967 c -0.20362,-1.9091 0.75865,-3.74952 2.88679,-5.52125 2.12811,-1.77159 4.38541,-2.78467 6.7719,-3.03924 3.15011,-0.33587 4.87787,0.92804 5.1833,3.79173 0.20357,1.90925 -0.60532,3.82985 -2.42669,5.76182 -1.73613,1.82646 -3.74969,2.86182 -6.04068,3.10607 -3.91383,0.41745 -6.0387,-0.94893 -6.37462,-4.09913"
         style="font-size:144px;fill:#2b1100;fill-opacity:1"
         id="path3015"
         inkscape:connector-curvature="0" />
      <path
         d="m 493.73071,297.39182 c -0.0305,-0.28638 0.58936,-2.62128 1.85969,-7.0047 1.17489,-4.37323 2.32623,-9.41977 3.45405,-15.13964 1.11763,-5.81527 1.48303,-10.53664 1.09619,-14.1641 1.59993,-2.19802 3.68859,-3.43447 6.26598,-3.70937 2.57738,-0.27482 3.99841,0.82871 4.2631,3.3106 0.34611,3.24563 -0.50935,9.70878 -2.56638,19.38946 9.18606,-17.9714 18.21791,-27.43048 27.0956,-28.37726 3.43648,-0.36644 6.19902,0.64231 8.28764,3.02623 2.07835,2.28854 3.30587,5.19878 3.68258,8.73071 0.33589,3.15017 -0.23886,7.26633 -1.72427,12.34847 -1.39004,5.07202 -1.96796,8.70578 -1.73378,10.90132 0.3868,3.62744 2.0121,5.28845 4.87591,4.98305 5.91838,-0.63116 11.80644,-8.78953 17.6642,-24.47514 l 1.77358,1.69347 c -5.15267,16.8655 -12.54963,25.81232 -22.1909,26.8405 -3.24564,0.34612 -5.81919,-0.24833 -7.72064,-1.78335 -1.89136,-1.43955 -2.98462,-3.54348 -3.27981,-6.31179 -0.20363,-1.90916 0.12355,-5.17828 0.98154,-9.80738 0.94321,-4.73469 1.29267,-8.24755 1.04838,-10.53859 -0.49885,-4.67744 -2.65744,-6.81258 -6.47575,-6.40542 -2.29104,0.24436 -4.67625,1.4159 -7.15565,3.51462 -2.38399,2.08861 -4.4663,4.28983 -6.24696,6.60367 -1.78069,2.3139 -3.84139,5.62307 -6.18212,9.92754 -2.24529,4.29432 -3.83889,7.45714 -4.78078,9.48846 l -4.36649,9.29946 c -3.53197,0.37666 -6.17361,-0.40361 -7.92491,-2.34082"
         style="font-size:144px;fill:#2b1100;fill-opacity:1"
         id="path3017"
         inkscape:connector-curvature="0" />
      <path
         d="m 561.81885,286.99401 c -0.76955,-5.61146 0.32585,-12.10854 3.28621,-19.49124 3.05548,-7.3957 7.38271,-13.99684 12.9817,-19.80346 5.59897,-5.80652 11.34686,-9.11416 17.24369,-9.9229 3.70925,-0.50865 6.93727,0.0661 9.68407,1.72422 2.74672,1.65822 4.33532,4.05662 4.7658,7.19519 0.56083,4.08976 -1.48893,6.45419 -6.14926,7.09328 0.24073,-1.77716 0.25024,-3.47419 0.0285,-5.09109 -0.73047,-5.3261 -3.42588,-7.66961 -8.08622,-7.03053 -4.18486,0.57396 -8.3224,3.6123 -12.41265,9.11503 -4.00822,5.39465 -7.09712,11.48683 -9.26671,18.27654 -2.08754,6.68161 -2.81174,12.35259 -2.17261,17.01296 0.50869,3.70928 2.04702,5.38783 4.61499,5.03566 1.71196,-0.23478 3.5984,-1.31713 5.65931,-3.24704 2.06087,-1.9299 3.90546,-4.02394 5.53376,-6.28212 1.62826,-2.25816 3.49812,-5.22776 5.60959,-8.90879 2.19348,-3.78914 3.78453,-6.67205 4.77317,-8.64873 l 4.11853,-8.12291 c 3.89566,0.14407 5.9609,1.07207 6.19572,2.78401 0.10431,0.76091 -0.88348,3.80333 -2.96336,9.12727 -2.07996,5.32399 -2.94384,9.26995 -2.59163,11.8379 0.2217,1.61688 0.80432,3.0389 1.74784,4.26608 1.02551,1.11905 2.34672,1.56769 3.96363,1.34595 2.75814,-0.37825 5.96225,-2.80409 9.61235,-7.27751 3.63694,-4.56851 7.01117,-10.69981 10.12269,-18.39394 l 1.6223,1.231 c -1.90499,8.01315 -5.23547,14.81674 -9.99145,20.4108 -4.66098,5.58104 -9.5594,8.72373 -14.69528,9.42807 -3.32888,0.45652 -6.0338,-0.18995 -8.11476,-1.93943 -1.97288,-1.66741 -3.14843,-3.88021 -3.52666,-6.6384 -0.15655,-1.14131 -0.20302,-2.53996 -0.1394,-4.19597 -3.49736,6.29355 -6.77539,11.00664 -9.8341,14.13927 -2.96364,3.11959 -6.10987,4.90765 -9.4387,5.36418 -3.13863,0.43042 -5.80251,-0.27013 -7.99166,-2.10167 -2.27122,-1.7234 -3.66769,-4.48728 -4.18944,-8.29168"
         style="font-size:144px;fill:#2b1100;fill-opacity:1"
         id="path3019"
         inkscape:connector-curvature="0" />
    </g>
    <g
       style="font-size:40px;font-style:normal;font-variant:normal;font-weight:normal;font-stretch:normal;line-height:125%;letter-spacing:0px;word-spacing:0px;fill:#2b1100;fill-opacity:1;stroke:none;font-family:Dancing Script;-inkscape-font-specification:Dancing Script"
       id="text3012">
      <path
         d="m 290.43165,346.75812 -17.352,0 -3.096,10.944 -6.264,0 14.4,-47.16 7.56,0 14.472,47.16 -6.624,0 -3.096,-10.944 m -15.84,-5.472 14.256,0 -7.056,-25.128 -7.2,25.128"
         style="font-size:72px;fill:#2b1100;font-family:Ropa Sans;-inkscape-font-specification:Ropa Sans"
         id="path3022"
         inkscape:connector-curvature="0" />
      <path
         d="m 321.23077,332.07012 c 1.58398,0.52802 2.92798,1.15202 4.032,1.872 1.15198,0.67202 2.06398,1.51202 2.736,2.52 0.71997,0.96002 1.22397,2.08802 1.512,3.384 0.33597,1.29601 0.50397,2.83201 0.504,4.608 l 0,1.368 c -3e-5,2.06401 -0.28803,3.88801 -0.864,5.472 -0.52803,1.584 -1.44002,2.928 -2.736,4.032 -1.24802,1.056 -2.88002,1.848 -4.896,2.376 -2.01602,0.576 -4.46401,0.864 -7.344,0.864 -1.15201,0 -2.66401,-0.12 -4.536,-0.36 -1.872,-0.24 -3.864,-0.6 -5.976,-1.08 l 0.144,-5.544 c 1.968,0.48 3.84,0.84 5.616,1.08 1.82399,0.24 3.35999,0.36 4.608,0.36 3.69599,0 6.26398,-0.552 7.704,-1.656 1.43998,-1.15199 2.15998,-2.83199 2.16,-5.04 l 0,-2.376 c -2e-5,-1.67999 -0.36002,-2.95199 -1.08,-3.816 -0.72002,-0.91198 -2.04002,-1.67998 -3.96,-2.304 l -7.416,-2.448 c -1.68001,-0.52798 -3.09601,-1.12798 -4.248,-1.8 -1.104,-0.67198 -1.992,-1.48798 -2.664,-2.448 -0.672,-0.95997 -1.176,-2.08797 -1.512,-3.384 -0.288,-1.29597 -0.432,-2.83197 -0.432,-4.608 l 0,-0.792 c 0,-4.07996 1.08,-7.19996 3.24,-9.36 2.20799,-2.20796 5.80799,-3.31195 10.8,-3.312 1.24798,5e-5 2.78398,0.12005 4.608,0.36 1.87198,0.19205 3.69598,0.45605 5.472,0.792 l -0.144,5.4 c -1.68002,-0.33596 -3.40802,-0.59996 -5.184,-0.792 -1.72802,-0.23996 -3.31202,-0.35996 -4.752,-0.36 -2.88001,4e-5 -4.92001,0.57604 -6.12,1.728 -1.20001,1.10404 -1.80001,2.76004 -1.8,4.968 l 0,1.872 c -10e-6,0.86403 0.072,1.60803 0.216,2.232 0.14399,0.57603 0.43199,1.10403 0.864,1.584 0.43199,0.48003 1.03199,0.91203 1.8,1.296 0.76799,0.33603 1.75199,0.69603 2.952,1.08 l 6.696,2.232"
         style="font-size:72px;fill:#2b1100;font-family:Ropa Sans;-inkscape-font-specification:Ropa Sans"
         id="path3024"
         inkscape:connector-curvature="0" />
      <path
         d="m 381.55665,346.75812 -17.352,0 -3.096,10.944 -6.264,0 14.4,-47.16 7.56,0 14.472,47.16 -6.624,0 -3.096,-10.944 m -15.84,-5.472 14.256,0 -7.056,-25.128 -7.2,25.128"
         style="font-size:72px;fill:#2b1100;font-family:Ropa Sans;-inkscape-font-specification:Ropa Sans"
         id="path3026"
         inkscape:connector-curvature="0" />
      <path
         d="m 435.84015,332.07012 c 1.58397,0.52802 2.92797,1.15202 4.032,1.872 1.15197,0.67202 2.06397,1.51202 2.736,2.52 0.71997,0.96002 1.22397,2.08802 1.512,3.384 0.33597,1.29601 0.50397,2.83201 0.504,4.608 l 0,1.368 c -3e-5,2.06401 -0.28803,3.88801 -0.864,5.472 -0.52803,1.584 -1.44003,2.928 -2.736,4.032 -1.24803,1.056 -2.88003,1.848 -4.896,2.376 -2.01602,0.576 -4.46402,0.864 -7.344,0.864 -1.15202,0 -2.66401,-0.12 -4.536,-0.36 -1.87201,-0.24 -3.86401,-0.6 -5.976,-1.08 l 0.144,-5.544 c 1.96799,0.48 3.83999,0.84 5.616,1.08 1.82399,0.24 3.35998,0.36 4.608,0.36 3.69598,0 6.26398,-0.552 7.704,-1.656 1.43997,-1.15199 2.15997,-2.83199 2.16,-5.04 l 0,-2.376 c -3e-5,-1.67999 -0.36003,-2.95199 -1.08,-3.816 -0.72002,-0.91198 -2.04002,-1.67998 -3.96,-2.304 l -7.416,-2.448 c -1.68001,-0.52798 -3.09601,-1.12798 -4.248,-1.8 -1.10401,-0.67198 -1.99201,-1.48798 -2.664,-2.448 -0.67201,-0.95997 -1.17601,-2.08797 -1.512,-3.384 -0.288,-1.29597 -0.432,-2.83197 -0.432,-4.608 l 0,-0.792 c 0,-4.07996 1.07999,-7.19996 3.24,-9.36 2.20799,-2.20796 5.80799,-3.31195 10.8,-3.312 1.24798,5e-5 2.78398,0.12005 4.608,0.36 1.87197,0.19205 3.69597,0.45605 5.472,0.792 l -0.144,5.4 c -1.68003,-0.33596 -3.40803,-0.59996 -5.184,-0.792 -1.72802,-0.23996 -3.31202,-0.35996 -4.752,-0.36 -2.88002,4e-5 -4.92001,0.57604 -6.12,1.728 -1.20001,1.10404 -1.80001,2.76004 -1.8,4.968 l 0,1.872 c -10e-6,0.86403 0.072,1.60803 0.216,2.232 0.14399,0.57603 0.43199,1.10403 0.864,1.584 0.43199,0.48003 1.03199,0.91203 1.8,1.296 0.76799,0.33603 1.75198,0.69603 2.952,1.08 l 6.696,2.232"
         style="font-size:72px;fill:#2b1100;font-family:Ropa Sans;-inkscape-font-specification:Ropa Sans"
         id="path3028"
         inkscape:connector-curvature="0" />
      <path
         d="m 452.11777,357.70212 0,-47.16 24.84,0 0,5.544 -18.72,0 0,14.904 17.28,0 0,5.472 -17.28,0 0,15.696 18.72,0 0,5.544 -24.84,0"
         style="font-size:72px;fill:#2b1100;font-family:Ropa Sans;-inkscape-font-specification:Ropa Sans"
         id="path3030"
         inkscape:connector-curvature="0" />
      <path
         d="m 499.44877,309.67812 c 2.92798,5e-5 5.42398,0.31205 7.488,0.936 2.11198,0.57604 3.81597,1.41604 5.112,2.52 1.34397,1.05604 2.32797,2.35204 2.952,3.888 0.62397,1.53604 0.93597,3.26404 0.936,5.184 l 0,1.872 c -3e-5,1.29603 -0.21603,2.56803 -0.648,3.816 -0.38403,1.24803 -0.96003,2.42403 -1.728,3.528 -0.72003,1.10402 -1.63203,2.08802 -2.736,2.952 -1.05602,0.86402 -2.25602,1.53602 -3.6,2.016 l 12.024,21.312 -6.84,0 -11.376,-20.16 -4.464,0 c -1.00801,2e-5 -2.16001,-0.048 -3.456,-0.144 l 0,20.304 -6.12,0 0,-47.736 c 2.016,-0.096 4.07999,-0.16795 6.192,-0.216 2.11199,-0.0479 4.19999,-0.0719 6.264,-0.072 m -0.144,5.112 c -0.81601,4e-5 -1.82401,0.024 -3.024,0.072 -1.15201,4e-5 -2.20801,0.024 -3.168,0.072 l 0,16.992 c 1.63199,0.096 2.90399,0.16802 3.816,0.216 0.91199,0.048 1.77599,0.072 2.592,0.072 3.69598,2e-5 6.33598,-0.71998 7.92,-2.16 1.58398,-1.48797 2.37598,-3.52797 2.376,-6.12 l 0,-1.368 c -2e-5,-2.59196 -0.81602,-4.53596 -2.448,-5.832 -1.58402,-1.29596 -4.27202,-1.94396 -8.064,-1.944"
         style="font-size:72px;fill:#2b1100;font-family:Ropa Sans;-inkscape-font-specification:Ropa Sans"
         id="path3032"
         inkscape:connector-curvature="0" />
      <path
         d="m 543.0954,357.70212 -8.064,0 -13.968,-47.16 6.48,0 11.52,41.256 11.52,-41.256 6.48,0 -13.968,47.16"
         style="font-size:72px;fill:#2b1100;font-family:Ropa Sans;-inkscape-font-specification:Ropa Sans"
         id="path3035"
         inkscape:connector-curvature="0" />
      <path
         d="m 563.49277,357.70212 0,-47.16 6.12,0 0,47.16 -6.12,0"
         style="font-size:72px;fill:#2b1100;font-family:Ropa Sans;-inkscape-font-specification:Ropa Sans"
         id="path3037"
         inkscape:connector-curvature="0" />
      <path
         d="m 595.34377,309.67812 c 1.63198,5e-5 3.28798,0.14405 4.968,0.432 1.72798,0.24005 3.38397,0.48005 4.968,0.72 l -0.144,5.4 c -1.20003,-0.23996 -2.68802,-0.47996 -4.464,-0.72 -1.77602,-0.28796 -3.55202,-0.43196 -5.328,-0.432 -3.31201,4e-5 -5.68801,0.67204 -7.128,2.016 -1.39201,1.29604 -2.08801,3.52803 -2.088,6.696 l 0,20.592 c -1e-5,3.12001 0.69599,5.35201 2.088,6.696 1.43999,1.296 3.81599,1.944 7.128,1.944 1.77598,0 3.55198,-0.12 5.328,-0.36 1.77598,-0.288 3.26397,-0.552 4.464,-0.792 l 0.144,5.544 c -1.58403,0.24 -3.24002,0.48 -4.968,0.72 -1.68002,0.288 -3.33602,0.432 -4.968,0.432 -2.83201,0 -5.23201,-0.288 -7.2,-0.864 -1.96801,-0.624 -3.55201,-1.536 -4.752,-2.736 -1.2,-1.248 -2.064,-2.784 -2.592,-4.608 -0.528,-1.82399 -0.792,-3.93599 -0.792,-6.336 l 0,-19.8 c 0,-4.89596 1.152,-8.54396 3.456,-10.944 2.30399,-2.39996 6.26399,-3.59995 11.88,-3.6"
         style="font-size:72px;fill:#2b1100;font-family:Ropa Sans;-inkscape-font-specification:Ropa Sans"
         id="path3039"
         inkscape:connector-curvature="0" />
      <path
         d="m 614.68027,357.70212 0,-47.16 24.84,0 0,5.544 -18.72,0 0,14.904 17.28,0 0,5.472 -17.28,0 0,15.696 18.72,0 0,5.544 -24.84,0"
         style="font-size:72px;fill:#2b1100;font-family:Ropa Sans;-inkscape-font-specification:Ropa Sans"
         id="path3041"
         inkscape:connector-curvature="0" />
    </g>
  </g>
</svg>
