<svg xmlns="http://www.w3.org/2000/svg" viewBox="0 0 100 100"><path d="M35.989 0c-.067.513-.105 1.032-.105 1.563 0 6.87 5.812 12.448 12.968 12.448 7.153 0 12.916-5.578 12.916-12.448 0-.53-.037-1.048-.105-1.563h-25.676zm23.906 12.499l3.385 5.99 6.98 9.583-3.022 2.865c.57.295.932.462 1.615.468.953-.198 3.99.452 4.948-.468v-.313l.157-.105-.157-.157c.002-1.053.005-3.12 0-3.646-.008-.652-.163-1.068-.468-1.615l-1.98 1.927-6.718-9.166-4.74-5.365zm-21.615.105l-4.74 5.051-6.875 9.375-1.98-1.927c-.308.548-.462.962-.468 1.615-.007.523-.005 2.595 0 3.646l-.157.157.157.105v.313c.957.918 3.995.27 4.948.468.68-.007 1.047-.173 1.615-.468l-3.022-2.865 6.875-9.375 3.647-6.093zm-19.271 17.082c-5.753 0-10.416 4.476-10.416 9.999 0 5.38 4.447 9.781 10 9.999l-.417 2.5-.208 9.426-2.76-.522c.065.617.145 1.01.522 1.563.512.472 1.265 2.095 2.135 3.022v.26h.313c.227.192.428.368.677.417 0 0 3.088-1.995 3.698-2.397.563-.37.79-.702 1.093-1.25l-4.167-.782.208-9.48-.26-2.76c5.548-.222 10-4.621 10-9.999 0-5.525-4.667-9.999-10.416-9.999zm62.864 0c-5.752 0-10.416 4.476-10.416 9.999 0 3.64 2.018 6.841 5.052 8.593l-2.865 2.917-8.75 10.938-2.083-2.032c-.308.547-.46.957-.468 1.615-.008.523-.002 2.6 0 3.646l-.157.157.157.105v.313c.243.237.598.398 1.042.468h.052c1.292.197 3.097-.147 3.802 0 .68-.007 1.098-.175 1.667-.468l-2.917-2.76 8.75-10.884 2.448-3.698c.94.458 1.947.822 3.022.99l-.417 2.605-.26 9.426-2.708-.522c.063.618.148 1.013.522 1.563.513.47 1.213 2.095 2.083 3.022v.26h.313c.232.192.482.37.73.417 0 0 3.087-1.993 3.698-2.397.562-.368.788-.703 1.093-1.25l-4.167-.782.208-9.48-.26-2.76h.833c5.753 0 10.468-4.481 10.468-9.999 0-5.525-4.717-9.999-10.468-9.999zm-62.864 1.147c5.083 0 9.218 3.971 9.218 8.855 0 4.771-3.978 8.635-8.907 8.801l-.157-2.24-.417 2.24c-4.975-.122-8.958-3.998-8.958-8.801 0-4.881 4.133-8.855 9.218-8.855zm62.864 0c5.087 0 9.218 3.971 9.218 8.855 0 4.878-4.133 8.855-9.218 8.855-.32 0-.627-.022-.938-.052l-.208-2.24-.313 2.135c-.902-.142-1.757-.408-2.552-.782l1.407-2.135-1.875 1.927c-2.807-1.513-4.688-4.396-4.688-7.708 0-4.881 4.083-8.855 9.167-8.855zm-56.301 18.957l2.865 5.365 5.782 7.916-3.022 2.865c.572.293.987.462 1.667.468.953-.197 3.938.45 4.897-.468v-.313l.157-.105-.157-.208v-3.593c-.008-.657-.163-1.068-.468-1.615l-1.98 1.875-5.522-7.551-4.218-4.635zm61.562 0l2.917 5.365 5.782 7.916-3.022 2.865c.568.292.935.462 1.615.468.952-.193 3.99.45 4.948-.468v-.313l.157-.105-.157-.208c.003-1.05.007-3.072 0-3.593-.007-.655-.162-1.067-.468-1.615l-1.98 1.875-5.522-7.5-4.272-4.688zm-74.062.105l-4.272 4.375-5.625 7.708-1.98-1.875c-.305.548-.46.955-.468 1.615-.007.522-.005 2.543 0 3.593l-.157.208.157.105v.313c.957.918 3.94.277 4.897.468.683-.007 1.095-.177 1.667-.468l-3.022-2.865 5.677-7.76 3.125-5.416zm-13.073 17.187v11.771c3.353-.04 6.042-2.655 6.042-5.885s-2.688-5.846-6.042-5.885zm40.938 0c-3.39 0-6.147 2.632-6.147 5.885 0 3.255 2.757 5.885 6.147 5.885 3.388 0 6.147-2.632 6.147-5.885 0-3.255-2.758-5.885-6.147-5.885zm18.125 0c-3.388 0-6.147 2.632-6.147 5.885 0 3.255 2.758 5.885 6.147 5.885 3.392 0 6.147-2.632 6.147-5.885 0-3.255-2.757-5.885-6.147-5.885zm20.208 0c-3.388 0-6.093 2.632-6.093 5.885 0 1.717.76 3.247 1.98 4.323 1.093.965 2.513 1.563 4.115 1.563 3.388 0 6.147-2.632 6.147-5.885 0-3.255-2.757-5.885-6.147-5.885zm-4.115 10.208l-3.282 2.76-3.282 4.115-2.083-1.98c-.305.548-.513.907-.522 1.563-.005.525-.002 2.6 0 3.646l-.105.157.105.105v.365c.245.237.652.348 1.093.417 1.292.195 3.15-.148 3.855 0 .682-.008 1.043-.12 1.615-.417l-2.865-2.813 3.333-4.166 2.135-3.75zm24.688-10.208c-3.39 0-6.093 2.632-6.093 5.885 0 3.255 2.703 5.885 6.093 5.885h.157v-11.771h-.157zm-80.832 1.772c-2.377 0-4.323 1.837-4.323 4.115 0 2.28 1.947 4.166 4.323 4.166 2.373 0 4.272-1.887 4.272-4.166 0-2.278-1.898-4.115-4.272-4.115zm.157 9.323l-.99 3.125-.157 3.022-2.813-.522c.067.618.148 1.015.522 1.563.513.472 1.262 2.042 2.135 2.968v.26h.26c.235.197.478.368.73.417 0 0 3.087-1.993 3.698-2.397.563-.373.788-.705 1.093-1.25l-4.115-.782.157-3.125-.522-3.282zm-11.666 11.926v9.063c.443.183.888.343 1.355.468v-8.176h20.625v8.541h1.355v-9.896h-23.333z" fill="#fff"/></svg>