<svg xmlns="http://www.w3.org/2000/svg" viewBox="0 0 100 100"><defs><clipPath><path d="M0 220h220v-220h-220v220z"/></clipPath></defs><path d="M42.875 12.594c-3.51 1.237.414 3.285 2.064 3.823 2.491 2.923 2.347 8.58-1.324 10.463-4.62-.201-7.593 4.526-7.396 8.745-.52 4.006 3.847 10.668 8.009 7.767.09-2.893-5.197-2.255-4.888-5.995-1.016-3.749 1.252-8.248 5.537-7.935 6.244-2.876 6.243-13.61 0-16.486-.635-.252-1.318-.383-2.002-.382zm10.406 3.656c-3.374 1.175.445 3.191 2.115 3.53 3.087 2.67 1.857 9.41-2.787 9.229-6.652.947-7.962 11.079-2.466 14.407 1.717 2.374 6.841-.227 3.138-1.727-5.126-.492-5.127-9.57 0-10.062 7.66-.218 8.895-12.564 1.953-15.029-.624-.228-1.288-.347-1.953-.347zm-37.281 30.25c-.665 11.547 6.272 22.852 16.607 27.896 1.098.736 7.436 2.431 4.01 3.042h-24.96v6.344c3.03.093 6.1-.193 9.102.156 2.381.701 2.279 4.395 5.134 3.469h44.638c.7-2.512 3.082-4.082 5.62-3.625h5.161v-6.344h-25.438c.676-2.05 4.686-1.789 6.442-3.427 2.608-.616 4.909-4.825 7.099-3.791 5.661 4.618 15.24 2.359 18.011-4.471 2.908-6.114-1.227-13.902-7.744-15.327-3.282.772.019-4.15-2.352-3.923-20.444.001-40.889-.001-61.332.001zm61.5 7.75c4.485-.474 7.753 3.76 6.94 8 .181 4.309-3.903 7.477-8.017 6.927-3.064.005-6.778-2.394-3.314-4.868 2.08-3.036 3.594-6.464 4.392-10.059zm-63.406 25.531h64.781c.582 1.919-.91 1.765-2.357 1.656-2.728-.252-5.734.402-7.171 3.026-.852 1.215-2.862.33-4.236.599h-39.799c-2.496-2.244-.837-2.109 1.406-2h14.656c.587-1.932-1.62-1.07-2.786-1.25h-16.777c-2.497-.702-5.149-.243-7.719-.375l.002-1.656z" fill="#fff"/></svg>