<svg xmlns="http://www.w3.org/2000/svg" viewBox="0 0 100 100"><defs><clipPath><path d="M0 220h220v-220h-220v220z"/></clipPath></defs><path d="M10.705 23.216c-2.688 0-4.887 2.265-4.887 5.659v43.216c0 2.579 2.199 4.693 4.887 4.693h78.477c2.685 0 4.887-2.114 4.887-4.693l.114-27.807-.114-16.375c.002-2.577-2.201-4.693-4.887-4.693h-78.477zm.205 1.25h77.477s4.398.46 4.398 3.739v3.273l-2.943-.136-1.375-3.329v-1.011h-3.898v1.25h1.296v.807l-1.216.727-2.557-1.534h1.171v-1.25h-5.182v1.25h2.671l-.523 1.25h-2.148v-1.25h-1.307v3.216l-1.648.08.125.443h-1.068v-3.739h1.296v-1.25h-3.887v1.25h1.296v3.739h-1.296v1.239h3.887v-.466l.773 2.636-2.034 1.523h-67.091v-7.477c0-4.018 2.081-4.977 3.784-4.977zm2.273 2.534v1.25h5.193v-1.25h-5.193zm0 1.25h-1.296v1.25h1.296v-1.25zm0 1.25v1.239h3.898v-1.239h-3.898zm3.898 1.239v1.25h1.296v-1.25h-1.296zm0 1.25h-5.193v1.239h5.193v-1.239zm2.591-4.989v4.989h1.307v-4.989h-1.307zm1.307 4.989v1.239h3.887v-1.239h-3.887zm3.887 0h1.296v-4.989h-1.296v4.989zm2.591-4.989v6.227h1.307v-3.727h1.296v-1.25h-1.296v-1.25h-1.307zm2.602 2.5v1.239h1.296v-1.239h-1.296zm1.296 1.239v1.25h1.296v1.239h1.307v-6.227h-1.307v3.739h-1.296zm10.387-3.739v1.25h3.887v-1.25h-3.887zm3.887 1.25v1.25h1.307v-1.25h-1.307zm-3.887 0h-1.296v3.739h1.296v-3.739zm0 3.739v1.239h3.887v-1.239h-3.887zm3.887 0h1.307v-1.25h-1.307v1.25zm3.898-4.989v1.25h5.193v-1.25h-5.193zm0 1.25h-1.296v3.739h1.296v-1.25h5.193v-1.239h-5.193v-1.25zm0 3.739v1.239h5.193v-1.239h-5.193zm6.489-4.989v6.227h1.296v-2.489h2.591v1.25h1.296v-2.489h-3.887v-1.25h3.887v-1.25h-5.182zm7.784 0v1.25h2.602v4.977h1.296v-4.977h2.591v-1.25h-6.489zm-2.591 1.25v1.25h1.296v-1.25h-1.296zm25.955 0h.057l-.057.034v-.034zm-5.466 1.409l2.239 1.341.716.432.727-.432 2.239-1.341.932 2.216.341.829.887.045 2.545.125-.625 2.136-.273.932.796.591 1.852 1.375-1.852 1.387-.796.58.273.943.625 2.148-2.534.114-.898.045-.341.818-.932 2.227-2.239-1.341-.727-.432-.716.432-2.239 1.341-.932-2.227-.341-.818-.898-.045-2.545-.114.625-2.148.284-.943-.796-.58-1.852-1.387 1.852-1.375.796-.591-.284-.932-.625-2.136 2.545-.125.898-.045.341-.829.932-2.216zm-3.614 1.08h1.625l-.25.602-1.375.057v-.659zm-16.875 1.25v1.239h1.296v-1.239h-1.296zm-19.091 11l.329.489c.687 1.012 1 2.102 1 3.171-.071 2.899-2.175 5.638-4.852 7.625-.259.976-.464 1.947-.614 2.955-.05.336-.099.68-.136 1.023h2.909c.147-.276.307-.548.466-.818 1.112-1.892 2.529-3.581 4.364-4.239.429-.144.829-.216 1.205-.216.962-.013 1.651.547 2.08 1.159.263.363.481.756.716 1.159 1.504.169 3.067.743 4.273 1.307.346-.492.66-.955.841-1.409l.159-.352.387-.011c1.529-.06 3.049-.1 4.58-.125.765-.012 1.541-.017 2.307-.023.766-.005 1.529-.011 2.296-.011 5.673 0 11.34.134 16.977.136v1.171l-16.977-.136c-.732 0-1.461.006-2.193.011-.732.005-1.462.011-2.193.023-1.462.023-2.93.06-4.387.114-.211.402-.46.786-.716 1.159l.398.239.784.489-.591.375h29.829v2.341h-32.08c.31.641.516 1.3.534 1.955 0 .303-.04.601-.148.898l-.193.523-.557-.148c-1.04-.285-2.872-.88-4.5-1.773-.736-.415-1.455-.894-2.023-1.455h-5.42c-.535 1.181-.965 2.313-1.273 3.171-.729 1.931-1.733 3.732-1.955 5.545l-1.216-.023c-.1-.996-.125-2.011-.125-3.023 0-1.641.08-3.286.08-4.864v-.8069999999999999h-25.455v-2.341h25.591l.091-.761c.101-.756.235-1.491.398-2.216-2.131 1.275-4.443 2.065-6.307 2.125l-.011-1.171c1.832-.019 4.482-1.061 6.739-2.671.434-1.565.966-3.119 1.545-4.796.493-1.279.843-4.292 2.534-5.455l.511-.318zm-.318 1.773c-.688 1.007-1.197 3.193-1.557 4.364-.369 1.07-.72 2.08-1.034 3.068 1.802-1.68 3.035-3.679 3.023-5.545-.002-.636-.132-1.265-.432-1.887zm4.989 9.375c-.198 0-.459.043-.796.159-1.268.38-2.429 1.683-3.42 3.261-.142.225-.286.458-.42.693h3.102v-.011c0-.498.136-1.008.432-1.5.542-.92 1.491-1.341 2.489-1.455-.106-.171-.206-.339-.307-.477-.38-.487-.602-.659-1.08-.671zm2 2.284c-.748.008-1.302.161-1.693.5l-.182.182-.159.216c-.154.257-.231.487-.261.705l-.023.216v.011h3.739l-.591-.761c-.187-.24-.359-.46-.5-.659l-.261-.409h-.068zm1.671.216c.174.229.372.48.591.75l.693.864h1.057c.118-.226.248-.456.387-.671-.81-.366-1.784-.723-2.727-.943zm-12.75 3.955l-.011.216v.591c0 1.392-.061 2.805-.08 4.193l.489-1.125c.157-.37.309-.738.443-1.102.296-.754.657-1.724 1.102-2.773h-1.943zm10.591 0c.229.151.468.292.727.432 1.193.655 2.569 1.166 3.568 1.477.002-.288-.071-.605-.205-.943l-.341.466.091-1.011-.261-.42h-3.58zm-36.682 6.42h18.159v2.091h-18.159v-2.091zm56.011 0h18.171v2.091h-18.171v-2.091z" fill="#fff"/></svg>