<svg xmlns="http://www.w3.org/2000/svg" viewBox="0 0 100 100"><defs><clipPath><path d="M0 220h220v-220h-220v220z"/></clipPath></defs><path d="M76.326 76.849s-9.06 5.119-26.326 5.119-27.188-5.119-27.188-5.119l-.788-1.349s6.784 4.331 27.976 4.331 27.113-4.331 27.113-4.331l-.787 1.349zm-53.908-19.033s4.824 4.725 27.582 4.725c22.758 0 26.72-4.725 26.72-4.725v2.531s-3.962 4.725-26.72 4.725-27.582-4.725-27.582-4.725v-2.531zm0-18.988s4.824 4.725 27.582 4.725c22.758 0 26.72-4.725 26.72-4.725v2.531s-3.962 4.725-26.72 4.725-27.582-4.725-27.582-4.725v-2.531zm1.969-16.629s2.855 4.163 25.613 4.163 24.751-4.163 24.751-4.163h1.576s-3.568 5.12-26.326 5.12-27.188-5.12-27.188-5.12h1.575zm56.411 12.144v-8.086c0-1.994-1.097-3.741-2.715-4.679l-.145-.635c-.777-1.724-3.646-3.141-8.575-4.22-5.242-1.149-12.198-1.781-19.585-1.781-7.388 0-14.344.632-19.585 1.781-4.929 1.079-7.798 2.496-8.575 4.22l-.223.979c-1.327.988-2.193 2.563-2.193 4.334v8.086c0 1.771.866 3.345 2.192 4.333v2.148c-1.326.988-2.192 2.562-2.192 4.333v8.086c0 1.771.866 3.345 2.192 4.333v2.149c-1.326.988-2.192 2.562-2.192 4.333v8.086c0 1.771.866 3.346 2.192 4.334v1.201l.168.858c.691 1.781 3.582 3.241 8.632 4.347 5.242 1.148 12.198 2.175 19.585 2.175 7.387 0 14.342-1.026 19.585-2.175 5.049-1.106 7.94-2.566 8.632-4.347l.167-.858v-.904c1.573-.948 2.635-2.669 2.635-4.63v-8.086c0-1.961-1.062-3.681-2.635-4.629v-1.555c1.573-.948 2.635-2.669 2.635-4.629v-8.086c0-1.962-1.062-3.682-2.635-4.631v-1.554c1.573-.949 2.635-2.669 2.635-4.63" fill="#fff"/></svg>