<svg xmlns="http://www.w3.org/2000/svg" viewBox="0 0 100 100"><defs><clipPath><path d="M0 220h220v-220h-220v220z"/></clipPath></defs><path d="M9.271 7.917c-1.232 0-2.24.954-2.24 2.135v23.073c0 1.185 1.006 2.135 2.24 2.135h8.125v2.865c0 1.392-.59 1.677-1.51 2.083-.667.293-1.823.786-1.823 2.031v.104c0 .583.026 1.242.573 1.771.558.54 1.24.612 2.917.625v18.854h-4.01v2.344h10.417v-2.344h-3.958v-18.854h7.865v24.74c0 2.213 1.91 4.01 4.219 4.01h12.865v5.677c0 2.733-1.211 3.261-3.021 4.063-1.073.472-2.711 1.216-3.281 2.813h-12.083c-3.472-.04-4.849-1.488-5.729-3.073-.418-.797-.624-1.62-.729-2.24-.11-.62-.099-.99-.104-.99v-8.802h3.958v-2.344h-10.417v2.344h4.01v8.802c.005.098-.018 2.116 1.094 4.271 1.062 2.143 3.542 4.427 7.813 4.427h12.031c.063.852.28 1.718 1.042 2.448 1.277 1.228 2.816 1.198 7.448 1.198h26.042c6.822 0 9.375.008 9.375-4.844 0-2.2-1.828-3.395-3.281-4.375-2.018-1.367-3.229-2.385-3.229-4.635v-4.74h12.865c2.308 0 4.219-1.795 4.219-4.01v-45.677c-.002-2.215-1.91-4.01-4.219-4.01h-45.26v-9.74c0-1.182-1.006-2.135-2.24-2.135h-31.979zm0 1.094h31.979c.618 0 1.094.45 1.094 1.042v9.74h-2.448v-7.708h-29.219v15.156h17.188v6.927h-18.594c-.618 0-1.094-.447-1.094-1.042v-23.073c0-.593.474-1.042 1.094-1.042zm14.479 1.406v.938h2.656v-.938h-2.656zm8.333 11.406h56.667c1.157 0 2.083.868 2.083 1.979v45.677c0 1.11-.928 2.031-2.083 2.031h-56.667c-1.157 0-2.083-.921-2.083-2.031v-45.677c0-1.112.928-1.979 2.083-1.979zm25.313 2.917v1.823h5.208v-1.823h-5.208zm-23.073 3.385v29.844h52.135v-29.844h-52.135zm-9.063.104c-1.145 0-2.083.868-2.083 1.979 0 1.112.937 2.031 2.083 2.031 1.147 0 2.083-.918 2.083-2.031s-.937-1.979-2.083-1.979zm-6.615 7.031h9.219v6.354h-12.083c.895-.557 2.865-.803 2.865-3.49v-2.865zm20.938 4.635h2.292v5.99h2.292v-5.99h2.24v5.99h2.292v-5.99h2.292v5.99h-2.292v1.51h-2.292v-1.51h-2.24v1.51h-2.292v-1.51h-2.292v-5.99zm13.698 0h2.24v5.99h2.292v-5.99h2.292v5.99h2.292v-5.99h2.24v5.99h-2.24v1.51h-2.292v-1.51h-2.292v1.51h-2.292v-1.51h-2.24v-5.99zm13.646 0h2.292v5.99h2.24v-5.99h2.292v5.99h2.292v-5.99h2.292v5.99h-2.292v1.51h-2.292v-1.51h-2.292v1.51h-2.24v-1.51h-2.292v-5.99zm-51.615 2.344h12.552v1.302h-10.156c-2.403-.008-2.396-.139-2.396-1.302zm45.104 17.448c-2.255 0-4.063 1.778-4.063 3.958 0 2.185 1.808 3.958 4.063 3.958 2.253 0 4.063-1.773 4.063-3.958 0-2.182-1.809-3.958-4.063-3.958zm-13.021 13.802h26.042v4.74c0 .553.055 1.044.156 1.51h-4.479v1.25h4.896c1.583 3.47 5.938 4.207 5.938 6.25 0 2.5 0 2.5-6.927 2.5h-26.042c-6.217 0-6.094 0-6.094-2.5h32.135v-1.25h-31.302c1.762-1.092 5.677-1.555 5.677-6.823v-5.677z" fill="#fff"/></svg>