<svg xmlns="http://www.w3.org/2000/svg" viewBox="0 0 100 100"><defs><clipPath><path d="M0 220h220v-220h-220v220z"/></clipPath></defs><path d="M67 9.875l-2.469 2.375v14.156l2.469 2.344h2.469l2.438-2.344h2.469l1.75-.688 1.719-1.688h22.156v-5.781c-1.965.792-.819.759-9.625 3.438h-13.531l-2.469 2.344h-4.906v2.375h-2.469v-14.156h2.469v2.344h30.531v-2.344h-28.094l-2.438-2.375h-2.469zm-42.313 3.719l-2.469 2.375v2.375l2.469 2.344v30.5c0 4.133-1.372 5.099-3.625 6.719-4.075 2.933-7.438 6.256-7.438 17.063 0 8.8 8.613 16.5 18.438 16.5 1.513 0 3.069-.206 4.594-.563l.313.563h45.438l2.125-3.531-7.813-12.969-3.531-5.906-5.813-9.625v-19.875l2.469-2.344v-2.375l-2.469-2.344h-14.75l-2.438 2.344v2.375l2.438 2.344v18.813l-3.375 5.625c-1.562-2.555-3.606-3.977-5.438-5.219-2.628-1.782-4.375-2.935-4.375-7.594v-30.5l2.469-2.344v-2.375l-2.469-2.375h-14.75zm0 2.375h14.75v2.344h-2.469v32.875c0 10.015 7.543 8.072 10.813 15.25l-1.563 2.625-3.563 5.906-7.813 12.969.531.844c-1.102.217-2.224.344-3.313.344-8.148 0-15.969-6.335-15.969-14.156 0-18.878 11.063-11.798 11.063-23.781v-32.875h-2.469v-2.344zm27.938 18.875h14.75v2.375h-2.438v22.406h-.281l6.406 10.625 2.125 3.531h-26.969l2.125-3.531 6.75-11.25v-21.781h-2.469v-2.375z" fill="#fff"/></svg>