<svg xmlns="http://www.w3.org/2000/svg" viewBox="0 0 100 100"><defs><clipPath><path d="M0 220h220v-220h-220v220z"/></clipPath></defs><path d="M50.031 9.5l-8.031 6.156h-28.156c-2.477 0-4.5 1.936-4.5 4.313v49.125c0 2.378 2.023 4.313 4.5 4.313h21.938v5.219c0 2.514-1.089 3.013-2.75 3.75-1.206.531-3.219 1.406-3.219 3.656v.156c-.001 1.051-.015 2.243.969 3.188 1.175 1.132 2.618 1.125 6.875 1.125h23.938c6.271 0 8.594-.011 8.594-4.469 0-2.022-1.664-3.132-3-4.031-1.857-1.252-2.969-2.182-2.969-4.25v-4.344h21.969c2.475 0 4.5-1.936 4.5-4.313v-49.125c0-2.377-2.025-4.313-4.5-4.313h-28.188l-7.969-6.156zm-2.813 8.344h4.781v1.656h-4.781v-1.656zm-30.719 4.281h67v37.5h-67v-37.5zm13.281 5.5c-.903.092-1.625.854-1.625 1.781v16.781c0 .988.823 1.813 1.813 1.813h40.156c.988 0 1.813-.825 1.813-1.813v-16.781c0-.988-.825-1.781-1.813-1.781h-40.344zm44.906 1.656v17.031l6.531-8.5-6.531-8.531zm-49.688.031l-6.531 8.469 6.531 8.531v-17zm7.844.313h1.875l1.344 13.438 1.594-8.875h2l1.656 8.906 1.344-13.469h3.7190000000000003l1.344 13.438 1.625-8.875h2l1.625 8.906 1.344-13.469h3.7190000000000003l1.375 13.438 1.594-8.875h2l1.625 8.906 1.375-13.469h1.844l-2.094 16.563h-1.813l-1.938-9.844-1.906 9.844h-1.813l-2.094-16.563-2.125 16.563h-1.781l-1.938-9.844-1.906 9.844h-1.813l-2.125-16.438-2.094 16.438h-1.813l-1.906-9.844-1.938 9.844h-1.813l-2.094-16.563zm8.719 21.25l8.469 6.563 8.531-6.563h-17zm8.438 11.781c2.073 0 3.75 1.619 3.75 3.625 0 2.003-1.679 3.625-3.75 3.625-2.071 0-3.75-1.623-3.75-3.625 0-2.006 1.68-3.625 3.75-3.625zm-11.969 10.781h23.938v4.313c0 .509.062.977.156 1.406h-4.125v1.156h4.5c1.458 3.193 5.438 3.872 5.438 5.75 0 2.297.024 2.281-6.344 2.281h-23.938c-5.718 0-5.594.017-5.594-2.281h29.5v-1.156h-28.719c1.615-1.004 5.188-1.433 5.188-6.281v-5.188z" fill="#fff"/></svg>