<svg xmlns="http://www.w3.org/2000/svg" viewBox="0 0 100 100"><defs><clipPath><path d="M0 220h220v-220h-220v220z"/></clipPath></defs><path d="M44.663 87.197l-9.215-15.922c7.642-.295 17.172-1.608 24.478-5.868l1.563-.938 13.16 22.727h-29.988zm-12.9-17.615c-4.567 0-7.943-.327-8.915-.427l4.203-4.168 17.203-1.472-14.435-1.473 8.602-6.038 17.2-1.775-13.975-1.032 18.272-11.795c-3.528 1.332-21.035 10.318-21.035 10.318v-8.253l-2.303 9.287-11.37 8.548v-8.398l-1.995 9.433-4.32 3.698c.193-5.068 2.303-20.713 24.872-32.4 13.818-7.145 29.398-8.52 39.22-8.517 2.832 0 5.158.112 6.842.232-4.293 1.803-13.118 5.823-24.758 12.795-.29.172-.38.533-.2.812.123.182.323.278.527.278.112 0 .223-.027.328-.09 8.302-4.972 15.163-8.435 19.952-10.657 2.74-1.268 4.758-2.113 6.015-2.618-5.148 19.048-19.172 30.085-32.725 38.028-7.977 4.683-19.317 5.697-27.203 5.687m-9.318.41v-.435l.068-.065-.068.5zm39.122-57.188l6.692 11.565h-.003c-7.685 1.077-16.262 3.212-24.388 7.232l-.972.475-.018.01.02-.01.97-.473-10.878-18.797h28.578zm21.178 34.16c4.958-5.993 8.94-13.187 11.092-22.015l-.772-1.077c-.028-.005-3.96-.525-10.075-.525-3.772.003-8.385.202-13.428.84l-6.918-11.953c-.218-.375-.63-.608-1.075-.608h-29.983l-.313.038-.103.043-.185.072-.102.073-.152.11-.067.077-.123.148-15.84 24.432c-.232.365-.245.82-.03 1.197l7.292 12.597-.002.002c-4.548 7.513-4.943 14.048-4.923 16.427l.002.09c.008.04.032.263.132.585l-11.007 9.423 2.38 6.415 12.663-12.563c.372.062.76.102 1.192.102.548.065 4.242.465 9.363.467.738-.002 1.513-.015 2.307-.032h.003l9.522 16.445c.215.375.627.607 1.072.607h29.988l.312-.037.108-.043.178-.068.117-.083.133-.098.105-.12.102-.125.002-.002v-.005l15.822-24.403c.238-.362.252-.82.032-1.193l-8.82-15.23z" fill="#fff"/></svg>