<svg xmlns="http://www.w3.org/2000/svg" viewBox="0 0 100 100"><defs><clipPath><path d="M0 220h220v-220h-220v220z"/></clipPath></defs><path d="M27.031 8.063c-5.591.084-11.197-.081-16.778.166-3.322.512-4.443 4.056-4.066 6.986.018 12.397-.035 24.796.026 37.192.291 3.522 3.993 4.813 7.009 4.397l4.622-.022v6.375c-1.161.361-3.928-.885-3.594.97-.712 2.192 1.546 1.415 2.911 1.53h7.527c.213-1.694.157-3.117-1.941-2.5-1.892.405-2.748-.226-2.278-2.183.176-1.303-.343-3.298.243-4.193 2.625-.128 5.306.244 7.883-.311.058 4.421-.119 8.855.092 13.268.742 3.576 4.677 3.549 7.561 3.419h9.315c-.151 2.627.385 5.373-.466 7.891-2.388 1.411-4.796 3.823-7.06 4.641-4.267-.121-8.576.266-12.812-.244-3.883-.82-4.752-5.091-4.444-8.463v-6.324c1.145-.319 3.571.644 3.906-.485.581-2.061-.675-2.285-2.426-2.015h-8.012c-.213 1.694-.157 3.117 1.941 2.5 2.064-.6 2.213.714 1.965 2.426.147 4.508-.929 9.873 3.086 13.126 3.72 2.99 8.717 1.691 13.105 1.979h4.715c.599 4.787 6.419 3.617 9.901 3.751 10.043-.055 20.091.121 30.129-.113 5.433.086 5.554-7.835.971-9.418-2.997-1.216-3.478-4.355-3.219-7.169-.555-2.057.623-2.382 2.426-2.081 3.657-.052 7.324.108 10.973-.087 3.509-.539 3.776-4.288 3.57-7.105v-42.339c.021-3.845-4.106-4.64-7.138-4.313h-53.612c-1.839.33-.558-2.905-.938-4.242.378-2.909-.787-6.404-4.066-6.908-.002-.404-1.03.245-1.028-.102zm-15.719 2.5h16.063c2.964.237 2.041 3.575 2.188 5.594h-20.438c.209-1.992-.888-5.418 2.187-5.594zm46.875 13.75h5.219c.677 2.17-1.084 1.903-2.669 1.813-1.587.132-3.188.279-2.55-1.813zm-49.063.313h20.438c-.033 1.501-2.701.366-3.882.719h-16.556v-.719zm25.625 2.594h52.938v30.563h-52.938v-30.563zm26.406 7.469c-4.467-.121-10.346 2.681-9.954 7.835 1.356 5.822 8.783 7.527 13.876 5.892 4.891-.815 8.423-7.435 3.925-10.957-2.123-1.911-5.028-2.77-7.847-2.77zm-41.906 1.469c5.955.586-.467 8.7-2.48 2.964-.357-1.494.961-3.017 2.48-2.964zm34.438 5.188h14.906c.438 1.903-2.295.636-3.396 1h-11.51v-1zm-44.563 9.031h19.469c-.333 1.474.995 4.414-1.462 4.157h-15.82c-2.469-.04-2.21-2.457-2.187-4.157zm52.094 9.406c6.176-.05 3.059 9.839-2.023 6.402-2.991-1.832-1.434-6.562 2.023-6.402zm-13.063 13.375h26.094c.066 2.083-.164 4.189.188 6.25h-4.531c-.631 2.099 1.961.975 3.154 1.25 2.996-.448 3.769 3.824 6.657 4.618 3.818 4.324-3.424 4.607-6.359 4.164-10.056-.059-20.12.129-30.17-.117-3.197-1.044-.974-3.3 1.378-2.383h29.277c.631-2.099-1.961-.975-3.154-1.25h-28.19c3.588-1.004 6.343-4.183 5.656-8.057v-4.475z" fill="#fff"/></svg>