<svg xmlns="http://www.w3.org/2000/svg" viewBox="0 0 100 100"><path d="M57.76 14.532c-5.872 0-11.117 1.918-14.583 4.948 2.248.657 4.3 1.765 5.99 3.385.295.283.567.578.833.885l.105.157c.228.267.422.55.625.833l.052.052c.453.64.862 1.277 1.198 1.98h19.688v2.343h-18.855l.052.052c.118.433.18.857.26 1.302l.052.105c.077.442.115.905.157 1.355v.052c.077.957.082 1.928 0 2.917v.052c-.04.437-.085.915-.157 1.355l-.105.365c-.062.348-.125.693-.208 1.042l-.105.417c-.085.338-.155.705-.26 1.042l-.157.417c-.155.47-.328.942-.522 1.407 1.862.443 3.87.677 5.938.677 10.413 0 18.855-6.11 18.855-13.593 0-7.485-8.443-13.542-18.855-13.542zm-19.583 7.397c-5.127 0-10.458 2.348-14.688 6.407-7.36 7.067-8.898 17.102-3.385 22.397 2.162 2.073 5.16 3.177 8.647 3.177 5.127.002 10.507-2.347 14.74-6.407 7.36-7.067 8.847-17.103 3.333-22.397-2.162-2.075-5.158-3.177-8.647-3.177zm4.48 5.833l1.302 1.25-19.688 18.907-1.302-1.25 19.688-18.907zm27.552 14.167c-.41.212-.818.382-1.25.573l-.522.208-.782.365-.677.208-.677.208-.782.26-.573.157-.885.208-.417.105c-.618.128-1.237.223-1.875.313-.638.09-1.27.162-1.927.208h-.052v18.907h-2.448v-18.855c-1.82-.025-3.577-.232-5.26-.573-.568-.113-1.118-.218-1.667-.365-1.198 2.073-2.745 4.072-4.635 5.885-.718.687-1.425 1.335-2.188 1.927.555 9.348 6.63 16.718 14.063 16.718 7.798 0 14.167-8.133 14.167-18.125 0-3.008-.598-5.837-1.615-8.333zm4.635 11.615c-1.297 10.18-8.487 17.968-17.188 17.968-.815 0-1.613-.08-2.397-.208-.167 2.353-.965 4.567-2.292 6.563.543 1.707 1.435 3.205 2.708 4.427.27.258.59.5.885.73.295.228.567.48.885.677 1.915 1.183 4.262 1.772 6.875 1.772 4.487 0 9.143-1.782 13.073-4.948.562-.452 1.138-.898 1.667-1.407v-.052c3.668-3.52 5.963-7.863 6.51-12.24.512-4.093-.615-7.695-3.177-10.157-1.935-1.857-4.528-2.92-7.552-3.125zm-41.667 3.282c-10.41 0-18.907 6.108-18.907 13.593 0 7.483 8.498 13.542 18.907 13.542 6.507 0 12.228-2.378 15.625-5.99 1.698-1.805 2.855-3.92 3.177-6.198.065-.455.052-.887.052-1.355v-.052c-4.788-1.99-8.628-6.447-10.522-12.135-2.522-.902-5.332-1.407-8.333-1.407zm45.052 3.802l1.302 1.25-19.688 18.907-1.302-1.25 19.688-18.907zm-58.958 9.583h27.813v2.343h-27.813v-2.343z" fill="#fff"/></svg>