<svg xmlns="http://www.w3.org/2000/svg" viewBox="0 0 100 100"><defs><clipPath><path d="M0 220h220v-220h-220v220z"/></clipPath></defs><path d="M35.938 9.625c-.085.009-.17.05-.25.094-.32.176-.429.585-.25.906l3.531 6.406c-6.819 3.525-11.438 10.239-11.438 17.938h44.813c0-7.674-4.592-14.375-11.375-17.906l3.563-6.438c.176-.321.071-.731-.25-.906-.318-.176-.729-.071-.906.25l-3.563 6.438-.031.094c-2.973-1.339-6.308-2.094-9.844-2.094-3.507 0-6.827.714-9.781 2.031l-.031-.031-3.531-6.438c-.133-.241-.4-.371-.656-.344zm3.781 13.531c1.04 0 1.875.835 1.875 1.875s-.834 1.875-1.875 1.875c-1.039 0-1.875-.835-1.875-1.875s.836-1.875 1.875-1.875zm20.469 0c1.037 0 1.875.835 1.875 1.875s-.838 1.875-1.875 1.875c-1.043 0-1.906-.835-1.906-1.875s.864-1.875 1.906-1.875zm-39.375 12.688c-2.76 0-5 2.032-5 4.563v21.563c0 2.532 2.24 4.594 5 4.594 2.759 0 5-2.061 5-4.594v-21.563c0-2.531-2.241-4.563-5-4.563zm58.375 0c-2.757 0-5 2.032-5 4.563v21.563c0 2.532 2.243 4.594 5 4.594 2.76 0 5-2.061 5-4.594v-21.563c0-2.531-2.239-4.563-5-4.563zm-51.656.875v32c0 3.1 2.555 5.625 5.656 5.625h3.438v11.438c0 2.533 2.243 4.594 5 4.594 2.761 0 5-2.06 5-4.594v-11.438h6.688v11.438c0 2.533 2.242 4.594 5 4.594 2.761 0 5-2.06 5-4.594v-11.438h3.375c3.101 0 5.656-2.525 5.656-5.625v-32h-44.813z" fill="#fff"/></svg>