<svg xmlns="http://www.w3.org/2000/svg" viewBox="0 0 100 100"><path fill="#FFF" d="M36.875 9.625c-1.375 1 .625 2.625 1 3.75.625 1.25 1.375 2.5 2 3.625-6.662 3.337-11.513 10.375-11.438 18h44.75c.086-7.538-4.75-14.5-11.375-17.875l3.563-6.438c-.424-2.425-2.063.775-2.5 1.775-.75 1.25-1.625 2.625-2.25 4-6.15-2.813-13.5-2.725-19.625-.094-1.3-2.212-2.35-4.612-3.813-6.713h-.375zm-21.875 4.875c-.15 4.225 3.738 7.375 6.012 10.6 1.725 1.538 4.65 6.313 5.725 5.425 1.363-3.95-3.95-5.863-5.813-8.912-2.125-2.25-4.25-4.5-6-7.125zm21.75 8.875c9.038 3.038 19.125 3.075 28.125 0 .258 1.925 2.813 6.95.367 7.25h-5.65c2.087-2.425-.862-2-2.487-1.975-1.613-.04-4.5-.454-2.45 1.975h-8.125c2.087-2.425-.862-2-2.487-1.975-1.613-.04-4.5-.454-2.45 1.975h-6.275c.209-2.462.66-4.9 1.438-7.25zm-15.125 12.875c-3.125-.154-5.537 2.875-5 5.875.066 7.05-.133 14.125.102 21.125.902 4.4 7.775 4.938 9.5.861.775-2.788.23-5.763.394-8.637-.064-5.2.131-10.412-.102-15.625-.476-2.212-2.7-3.7-4.9-3.675zm58.375 0c-3.125-.154-5.537 2.875-5 5.875.066 7.05-.133 14.125.102 21.125.902 4.4 7.775 4.938 9.5.861.774-2.788.23-5.763.393-8.637-.064-5.2.13-10.412-.102-15.625-.375-2.125-2.625-3.625-4.75-3.625zm-51.5.5c.019 10.862-.039 21.75.029 32.625.259 3.5 3.887 5.537 7.125 5.05 1.675-.385 2.338.244 1.938 1.925.061 3.475-.126 6.975.102 10.438.902 4.4 7.775 4.938 9.5.862.774-2.788.23-5.763.393-8.637v-4.588h6.688c.063 4.125-.129 8.25.102 12.363.901 4.4 7.775 4.938 9.5.862.774-2.788.23-5.763.393-8.637v-4.588c2.938.077 6.587.259 8.213-2.75 1.412-2.8.605-6.05.82-9.075v-25.75h-44.75zm46 34c-.625 1.625 1.75 2.375 2.5 3.5 1.875 1.625 3.625 3.25 5.375 4.875-1 .125-4.375.25-2.375.625-1 1.5.75.5.75 1.75-1 .75-2.125-1.625-3.25-2.25-1.625-1.5-3.375-3.125-5.125-4.75-1.625.875 1.25 2 1.875 3 2.375 2.25 4.875 4.5 7.25 6.625-.304-2.188 4.625-3.188 2.612-4.625l-9.625-8.75zm8.6 9.125c.375 1-4 4-1 1.25.375-.375.75-.75 1-1.25z"/></svg>