<svg xmlns="http://www.w3.org/2000/svg" viewBox="0 0 100 100"><defs><clipPath><path d="M0 220h220v-220h-220v220z"/></clipPath></defs><path d="M61.578 72.89h-13.352l5.212-7.813 8.14 7.813zm-21.183 9.972c-.167-.565-.468-1.097-.943-1.53-.285-.262-.613-.458-.953-.61l7.283-10.963 2.35 1.328.088.05-7.823 11.725zm-.875 1.313l-.093.143-.147.56c-.113.212-.247.417-.423.598-.18.177-.382.313-.595.425l-.112-.102.108.108c-.382.203-.813.32-1.248.32-.633 0-1.262-.222-1.747-.672-.537-.482-.797-1.123-.798-1.772.003-.612.232-1.215.702-1.685.387-.387.867-.623 1.37-.712.467.08.908.29 1.28.628.277.253.475.555.605.877h.958c.115.282.178.585.178.892l-.035.387m-17.923-11.285v-10.155l17.612-11.313 10.74 10.303-4.487 6.753-.015-.008-.297-.168-.502.817.268.15.013.01-2.397 3.61h-20.937zm0-38.372l13.575 13.027-13.575 8.848v-21.875zm-6.455 27.235l56.547-36.845.915 1.253-.432 1.357c.32.075.627.198.912.38l.607-1.905-1.755-2.397-.402.265-2.017 1.312-.683.45-.025-.465c-.002-1.867.715-3.747 2.167-5.202 1.545-1.56 3.625-2.348 5.697-2.348 1.367 0 2.728.363 3.952 1.047l1.14-1.787c-1.518-.853-3.218-1.288-4.923-1.288-2.595 0-5.178.98-7.105 2.925-1.815 1.823-2.71 4.157-2.71 6.49.003.567.063 1.133.168 1.695l-.255.167-.873.567-13.577 8.848-7.393-6.753-1.152 1.163 7.128 6.513-7.117 4.638-32.127-30.835-.65.625v53.982l-.797 1.11.308.67-2.832 3.262 3.32-2.102v14.357h5.212v-2.502h1.303v2.502h11.727v-2.502h1.303v2.502h2.893c-.082.293-.137.593-.137.892 0 .647.198 1.292.583 1.853.147.215.318.423.52.608l.165.123c.517.422 1.128.667 1.76.757l-.563.053-.107-.01-2.395 1.51-.077-.028 2.347-1.482c-.738-.02-1.463-.273-2.073-.742l.037-.058-.165-.123c-.205-.183-.373-.393-.522-.608l-2.08 3.132.283.105-.032.035-1.307 1.313 2.587.148.413-.84.202-.413-1.433-.548.033-.033 1.52.582-.2.413.58.213 4.185-2.638c.675-.135 1.323-.462 1.835-.978l-.118-.105.005-.003.118.107c.447-.453.722-1 .858-1.565l1.115-1.668h.893v-1.338l.773-1.162h.528v2.502h11.728v-2.502h1.302v2.502h11.727v-2.502h1.305v2.502h11.727v-2.502h1.303v2.502h3.9l-27.548-26.44 4.507-6.753.42-.632 6.958 6.357 1.148-1.162-7.187-6.57 8.365-12.54.585-.872 1.07-1.605.643-.963 1.182-1.773-.423-.252-2.172-1.32-1.287.448c-.367-.302-.807-.453-1.255-.455-.518 0-1.027.195-1.413.582-.353.358-.532.815-.532 1.282 0 .492.198.98.603 1.343.368.345.848.515 1.332.515.517 0 1.027-.193 1.407-.577v.005c.357-.37.532-.827.532-1.287 0-.202-.042-.4-.108-.593l.603-.207 1.342.812-26.725 40.042.523.297-.252.412-.25.412-.092-.053.22-.358.252-.412-.523-.297-1.16-.653 3.708-5.125-.812-.542-3.752 5.185-.615-.347.303-.5.298.168 13.985-21.047.183.165 1.27-1.88-.192-.178 8.443-12.71c-.297-.122-.582-.29-.832-.512l-.222.33-7.843 11.807-.282.423-1.878-1.69-1.602 1.588 2.22 1.998-4.2 6.325-7.648-7.338 6.388-4.103 2.217 2.038-2.205 2.227.882.803 2.937-2.958 1.152-1.162 2.622-2.643-.882-.807-2.623 2.642-.357.36-1.863-1.71.433-.278 12.197-7.833.355-.227c-.228-.242-.412-.507-.538-.795l-57.012 36.027m64.922-34.625l-.26-.022-1.072 1.602c.492.075.993.122 1.493.122 2.592 0 5.178-.982 7.112-2.923 1.808-1.827 2.702-4.155 2.702-6.492 0-1.798-.538-3.585-1.597-5.14l-1.83 1.115c.878 1.258 1.322 2.723 1.322 4.188 0 1.867-.723 3.745-2.172 5.207-1.545 1.56-3.618 2.343-5.698 2.343m-26.953 38.107l.757.493 3.42-4.868-.755-.492-3.422 4.867zm31.865-49.982l3.327-2.018 7.237-7.5-.097-.46c-.09-.363-.277-.767-.42-.887-.18-.217-.923-.323-1.285-.343l-7.48 7.335-2.032 3.183.747.688z" fill="#fff"/></svg>