<svg xmlns="http://www.w3.org/2000/svg" viewBox="0 0 100 100"><defs><clipPath><path d="M0 220h220v-220h-220v220z"/></clipPath></defs><path d="M64.996 60h-5.707l2.744-10h5.686l-2.723 10zm16.662-10l1.551-5.909h-7.047l3.756-14.091h-6.891l-3.755 14.091h-5.673l3.785-14.091h-6.894l-3.784 14.091h-16.071c.013 3.816-3.033 7.457-7.059 6.773-3.895.027-6.28-3.791-6.57-7.306-.409-4.458-.639-9.644 2.468-13.254 2.966-3.008 9.378-2.516 10.748 1.905-.143 2.245 1.525 1.942 3.148 1.883h7.108c-.311-4.703-2.329-9.767-6.907-11.801-5.286-2.453-11.711-2.72-17.118-.487-6.24 2.691-9.364 9.625-9.591 16.11-.513 6.751 1.156 14.613 7.138 18.594 4.986 2.958 11.425 3.206 16.806 1.219 3.516-1.415 6.35-4.296 7.916-7.726h6.418l-2.745 10h-7.017l-1.549 5.909h7.003l-3.747 13.636h6.893l3.747-13.636h5.72l-3.718 13.636h6.891l3.718-13.636h7.056l1.549-5.909h-7.053l2.723-10 7.046-.001z" fill="#fff"/></svg>