<svg xmlns="http://www.w3.org/2000/svg" viewBox="0 0 100 100"><defs><clipPath><path d="M0 220h220v-220h-220v220z"/></clipPath></defs><path d="M90.375 20.5l-2.469 1.688v4.094h-7.813c-.677-.255-1.421-.375-2.219-.375-.5 0-.984.06-1.438.156-.227.048-.441.084-.656.156-1.075.361-1.996 1.041-2.781 2-.156.192-.299.382-.438.594-.959 1.479-1.438 3.44-1.438 5.875 0 2.688.602 4.763 1.844 6.25.774.93 1.726 1.589 2.844 1.938.447.139.934.235 1.438.281.251.023.517.031.781.031 1.68 0 3.04-.477 4.125-1.406 1.08-.935 1.818-2.242 2.219-3.938l-2.531-.344c-.373 1.185-.861 2.026-1.5 2.563-.638.542-1.412.813-2.313.813-1.21 0-2.222-.471-3.031-1.438-.81-.962-1.255-2.37-1.344-4.188h10.813c.01-.33 0-.58 0-.75 0-2.548-.55-4.551-1.625-6.031h5.063v9.5c0 1.679.112 2.791.313 3.313.201.526.543.931 1.031 1.25.493.324 1.2.5 2.094.5.544 0 1.156-.085 1.844-.25l-.344-2.469c-.446.075-.819.094-1.094.094-.363 0-.648-.053-.844-.188-.195-.137-.318-.334-.406-.563-.084-.228-.125-.729-.125-1.531v-9.656h2.469v-2.188h-2.469v-5.781zm-59.531 2.813c-2.338.114-4.806.942-5.875 3.188-1.321 2.442-.42 5.81 2.094 7.094 1.987 1.327 4.488 1.307 6.531 2.469 1.892 1.38-.053 4.063-2.031 3.469-1.988.13-2.32-2.398-3-3.219l-4.813.313-4.438-13h-5.906l-6.594 19.406h5.531l.875-3.188h6.156l.875 3.188h5.688l-.688-2.063c1.782 2.41 5.122 2.478 7.844 2.344 2.783-.085 5.506-1.861 6.25-4.625v4.344h5.438v-7.188c2.673-.066 5.774.431 7.844-1.656 1.914-2.088 2.021-5.411.906-7.906-1.06-2.246-3.74-2.806-6-2.656h-8.188v11.188c-.858-2.908-4.086-3.877-6.688-4.563-1.302-.27-4.127-.744-3-2.656 1.197-1.315 3.909-.662 4.156 1.219-.048 1.047 1.215.383 1.875.5l3.375-.219c-.138-2.349-1.537-4.749-3.938-5.344-1.058-.329-2.178-.436-3.281-.438-.324-.01-.666-.016-1 0zm32.375 2.594c-.502 0-.963.043-1.406.156-.221.057-.45.134-.656.219-1.034.426-1.865 1.209-2.531 2.344v-2.344h-2.219v16.531h2.438v-9.031c0-2.12.398-3.552 1.156-4.313.382-.377.799-.654 1.25-.844.225-.095.444-.171.688-.219.243-.048.488-.063.75-.063.656 0 1.23.16 1.719.5.485.335.84.78 1.031 1.344.191.568.281 1.425.281 2.563v10.063h2.438v-10.156c0-1.296-.036-2.198-.125-2.719-.149-.797-.382-1.515-.75-2.094-.363-.584-.921-1.045-1.656-1.406-.73-.356-1.531-.531-2.406-.531zm-18.438 1.688c1.416.066 3.456-.375 4.031 1.344.697 1.702-.974 3.308-2.688 2.969-.496-.124-1.606.382-1.344-.5v-3.813zm33.125.625c1.243 0 2.25.547 3.031 1.625.508.69.829 1.739.938 3.125h-8.094c.084-1.44.513-2.609 1.281-3.469.768-.861 1.717-1.281 2.844-1.281zm-61.594.438l1.938 7h-3.875l1.938-7zm36.438 9.906c-3.37-.017-1.703 5.525 1.094 3.625 1.557-1.006.804-3.691-1.094-3.625zm23.438 16.875c-4.868.215-9.677 3.457-10.688 8.406-1.293 4.999.521 11.224 5.625 13.281 3.518 1.436 7.632 1.412 11.188.125l-.719-3.938c-3.449 1.306-8.401 1.119-10.344-2.531-1.904-3.658-.919-9.379 3.375-10.813 2.233-.919 5.003-.227 6.969.25l1-3.781c-1.676-.811-3.605-.974-5.438-1-.324-.013-.644-.014-.969 0zm-57.375.344l-1.406 22.063h4.625c.307-5.825.522-11.776.844-17.5 1.078 5.798 2.806 11.44 4.344 17.125h3.906c1.768-5.694 3.641-11.452 5.219-17.125.02 5.838.342 11.668.563 17.5h4.844l-1.188-22.063h-6.531c-1.58 5.051-3.276 10.073-4.406 15.25-.828-2.38-1.173-5.45-2.031-8.031l-2.125-7.219h-6.656zm24.906 0l7.063 22.063h5.844l7.406-22.063h-5.281c-1.653 5.726-3.57 11.383-4.813 17.219-.764-2.946-1.507-6.189-2.438-9.219l-2.313-8h-5.469z" fill="#fff"/></svg>