<svg xmlns="http://www.w3.org/2000/svg" viewBox="0 0 100 100"><defs><clipPath><path d="M0 220h220v-220h-220v220z"/></clipPath></defs><path d="M19.344 7.594c-1.768 0-3.219 1.45-3.219 3.219v79.688c0 1.768 1.451 3.219 3.219 3.219h15.625l.25.313c.238.239.502.421.781.594.661.409 1.425.656 2.219.656h23.688c.812 0 1.573-.258 2.219-.656.398-.245.733-.548 1.031-.906h15.625c1.768 0 3.219-1.45 3.219-3.219v-79.688c0-1.769-1.45-3.219-3.219-3.219h-61.438zm30.688 2.875h.063c.373 0 .656.25.656.563 0 .313-.284.563-.656.563h-.063c-.371 0-.656-.249-.656-.563 0-.313.285-.563.656-.563zm-28.656 4.406h57.375v70.5h-12.594v-44.187c0-2.339-1.912-4.219-4.25-4.219h-23.688c-2.34 0-4.25 1.88-4.25 4.219v1.906c-.19.256-.282.587-.281.938v1.656c0 .351.092.683.281.938v.781c-.191.255-.282.555-.281.906v1.688c0 .351.092.682.281.938v2.5c-.189.255-.281.589-.281.938v1.656c0 .349.091.682.281.938v28.406h-12.594v-70.5zm16.844 23h23.688c1.833 0 3.313 1.48 3.313 3.313v49.844c-.001 1.834-1.479 3.343-3.313 3.344h-23.688c-1.833 0-3.345-1.51-3.344-3.344v-49.844c0-1.833 1.509-3.312 3.344-3.313zm9.563 3.5c-.611-.002-1.094.269-1.094.594 0 .324.482.594 1.094.594h4.531c.61 0 1.125-.269 1.125-.594 0-.324-.513-.594-1.125-.594h-4.531zm-11.656 3.875l-.031 39.938h27.906v-39.938h-27.875zm.906.906h26.063v38.125h-26.063v-38.125zm13.031 40.875c-1.421 0-2.561 1.142-2.563 2.563.001 1.42 1.143 2.561 2.563 2.563 1.423-.001 2.562-1.141 2.563-2.563 0-1.42-1.141-2.562-2.563-2.563zm-1.125 1.438l2.219.031v2.219h-2.219v-2.25zm.406.406v1.438h1.438v-1.438h-1.438z" fill="#fff"/></svg>