<svg xmlns="http://www.w3.org/2000/svg" viewBox="0 0 100 100"><defs><clipPath><path d="M0 220h220v-220h-220v220z"/></clipPath></defs><path d="M68.352 8.875c-13.959.157-26.239 8.458-36.023 17.756-6.513 6.245-12.653 13.123-16.298 21.484-4.3 8.936-7.315 18.894-5.888 28.897.578 5.827 4.119 12.578 10.487 13.386 11.763 2.059 24.301-.221 34.376-6.698 13.644-7.811 23.935-20.589 30.887-34.518 4.965-10.192 6.402-23.2-.187-33.014-3.808-5.478-11.027-7.25-17.355-7.293zm0 2.341c4.322.022 8.786.912 12.432 3.329-2.991 1.486.206 1.685 1.207 1.023 4.968 5.078 6.2 12.818 5.504 19.654-1.436 11.703-8.224 21.886-15.463 30.86-7.723 9.246-17.724 16.84-29.203 20.694-7.746 2.314-16.152 2.729-24.023.794-6.071-3.582-6.803-11.351-6.491-17.716.457-9.412 4.384-18.285 8.909-26.41 4.475-7.343 10.757-13.414 17.164-19.071 8.416-7.057 18.68-13.085 29.963-13.155zm9.557 4.932c-2.838.53-.873 3.108.577.716.103-.375-.231-.713-.577-.716zm-3.045 2.023c-3.73 1.491 1.338 2.662.287.044l-.287-.044v-.001zm-2.716 2.261c-3.355 1.245.581 3.053.421.192l-.42-.193-.001.001zm-2.636 2.477c-4.007-.892-5.595 7.346-9.172 3.897-2.876-1.962-2.769 2.37.041 2.426.623 1.424-2.54 3.736-3.865 1.279-3.005-2.35-3.657 2.585-.297 2.915.597.988-2.782 4.965-3.953 2.033-2.877-3.174-4.55 1.618-.892 2.613 1.755 1.186-2.467 4.523-3.256 1.754-2.876-3.188-4.586 1.596-.914 2.609 1.799 1.149-2.703 4.774-3.6 4.247-1.205-1.916-6.321-2.1-3.876.775 2.72.802 3.5 2.128.965 3.898-1.024 1.463-6.645-3.967-5.622.729 2.229 1.07 4.623 2.115 1.606 4.135-.874 2.519-6.857-3.923-5.879 1.08 1.722 1.146 4.322 1.52 2.993 3.981-.459 4.115 4.193-1.379 5.59 1.93 2.068 2.724 4.284-1.602 1.124-2.448-2.785-.86 1.806-6.453 3.125-2.77 2.058 2.75 4.323-1.586 1.142-2.441-2.838-.961 1.902-5.979 3.085-2.512 2.053 2.762 4.331-1.555 1.152-2.425-2.823-.803 2.518-6.855 3.339-2.796 1.906 3.121 4.198-.985 1.466-2.326-2.707-1.406 1.899-5.664 2.692-2.047 1.901 3.163 4.216-.982 1.462-2.328-2.699-1.278 2.453-6.546 3.543-3.096 2.877 3.785 4.405-1.435.895-2.769-1.402-1.41 2.569-4.607 3.652-1.681 2.933 3.464 3.682-1.37.397-2.409-1.72-2.21 7.231-5.058 3.057-8.253zm-36.545 40.977c-2.169.747-.512 3.423.5.909.302-.373-.064-.936-.5-.909zm-2.034 2.92c-2.157.79-.483 3.418.522.91.291-.386-.094-.93-.522-.91zm-2 2.943c-2.143.814-.434 3.414.533.898.293-.384-.095-.947-.533-.898zm-1.966 2.955c-2.136.826-.427 3.429.534.898.281-.385-.098-.936-.534-.898zm-1.943 2.977c-2.137.843-.39 3.437.545.898.286-.39-.105-.943-.545-.898zm-1.909 3c-2.138.843-.356 3.446.546.887.274-.385-.107-.942-.546-.887zm-1.887 3.011c-2.129.871-.319 3.445.557.876.273-.392-.126-.926-.557-.876zm-1.852 3.034c-2.763 1.529 1.132 3.383.341.079l-.341-.08v.001z" fill="#fff"/></svg>