<svg xmlns="http://www.w3.org/2000/svg" viewBox="0 0 100 100"><defs><clipPath><path d="M0 220h220v-220h-220v220z"/></clipPath></defs><path d="M50.594 7.719c-2.205-.026-4.421.152-6.594.469-.805 2.909-1.35 5.841-1.656 8.813-1.673.338-3.27.937-4.875 1.5-1.553.697-3.113 1.349-4.563 2.25-2.259-1.949-4.699-3.688-7.281-5.25-3.597 2.525-6.828 5.596-9.438 9.156 1.47 2.616 3.204 5.109 5.063 7.406-.96 1.417-1.619 3.009-2.375 4.531-.587 1.595-1.283 3.143-1.656 4.813-2.945.227-5.933.678-8.844 1.406-.796 4.34-.822 8.84-.188 13.188 2.911.804 5.844 1.35 8.813 1.656.34 1.671.938 3.268 1.5 4.875.693 1.554 1.347 3.112 2.25 4.563-1.948 2.26-3.686 4.699-5.25 7.281 2.525 3.596 5.598 6.829 9.156 9.438 2.615-1.471 5.138-3.203 7.438-5.063 1.415.959 2.977 1.617 4.5 2.375 1.595.585 3.142 1.286 4.813 1.656.227 2.947.679 5.932 1.406 8.844 2.712.497 5.496.704 8.25.625.551-.016 1.107-.056 1.656-.094 1.099-.075 2.195-.185 3.281-.344.804-2.907 1.351-5.845 1.656-8.813 1.672-.34 3.267-.936 4.875-1.5 1.553-.694 3.112-1.347 4.563-2.25 2.26 1.948 4.698 3.687 7.281 5.25 2.697-1.894 5.195-4.105 7.375-6.594.727-.83 1.41-1.673 2.063-2.563-1.471-2.617-3.204-5.14-5.063-7.438.96-1.418 1.618-2.979 2.375-4.5.587-1.595 1.285-3.143 1.656-4.813 2.945-.228 5.933-.709 8.844-1.438.796-4.34.824-8.808.188-13.156-2.909-.804-5.845-1.35-8.813-1.656-.085-.418-.169-.84-.281-1.25-.112-.41-.244-.814-.375-1.219-.261-.81-.564-1.602-.844-2.406-.696-1.551-1.349-3.112-2.25-4.563 1.949-2.26 3.689-4.699 5.25-7.281-2.524-3.598-5.597-6.832-9.156-9.438-2.616 1.469-5.139 3.204-7.438 5.063-.354-.24-.693-.446-1.063-.656-1.109-.63-2.296-1.152-3.438-1.719-1.596-.591-3.142-1.286-4.813-1.656-.228-2.948-.679-5.931-1.406-8.844-2.169-.396-4.389-.63-6.594-.656zm-.594 13.5c15.125 0 27.544 11.744 28.656 26.594.046.355.101.702.125 1.063.024.361.031.728.031 1.094 0 .734-.065 1.446-.156 2.156-.417 5.568-2.417 10.698-5.563 14.938-.262.353-.535.691-.813 1.031-4.997 6.131-12.467 10.186-20.875 10.594-.467.023-.934.031-1.406.031h-.625l-4.094 4.656-.313-5.094c-13.459-2.392-23.719-14.178-23.719-28.313 0-2.973.44-5.863 1.281-8.563.14-.45.307-.872.469-1.313 4.037-11.005 14.613-18.875 27-18.875zm0 3.719c-13.371 0-24.328 10.544-25 23.75-.022.426-.031.85-.031 1.281 0 11.987 8.482 22.034 19.75 24.469l-.281-4.094 5.281 4.656h.281c8.207 0 15.495-3.969 20.063-10.094-2.489 1.408-5.348 2.219-8.406 2.219-8.509 0-15.602-6.238-16.938-14.375l-4.844-4.281 4.719-.313c.904-8.613 8.214-15.344 17.063-15.344 3.058 0 5.918.812 8.406 2.219-4.569-6.122-11.855-10.094-20.063-10.094zm11.656 11.594c-6.706 0-12.293 4.94-13.281 11.375l4.5-.281-4.375 4.969c1.233 6.14 6.658 10.781 13.156 10.781 6.798 0 12.436-5.064 13.313-11.625.041-.591.063-1.181.063-1.781 0-.601-.022-1.193-.063-1.781-.877-6.563-6.515-11.656-13.313-11.656z" fill="#fff"/></svg>