<svg xmlns="http://www.w3.org/2000/svg" viewBox="0 0 100 100"><defs><clipPath><path d="M0 220h220v-220h-220v220z"/></clipPath></defs><path d="M13.215 80.622h6.667l-1.075 3.087-.012.117-.01.008v1.477h-7.405l1.833-4.69zm8.003-1.5c.428.348.67.993.67 1.977 0 1.353-.633 1.945-1.317 2.198-.27.06-.553.108-.853.133l1.5-4.307zm-.823-1.077v-1.227h8.368v1.25l-.145-.013c-.637.033-2.118.397-2.118 3.042 0 2.725 2.063 3.1 2.977 3.135l.127-.008v1.353h-10.052v-1.338c.753-.003 3.103-.248 3.103-3.142 0-2.772-1.64-3.065-2.262-3.052m10.792-27.822h1.62l3.447 3.402-7.312 22.525h-8.505l10.752-25.927zm-13.17 18.11h5.045l-1.103 2.658h-5l1.057-2.658zm4.455-11.39h5.313l-1.68 4.05h-5.223l1.59-4.05zm46.242-6.72h.095l10.75 25.927h-8.507l-7.312-22.522 3.452-3.405h1.522zm8.812 6.72l1.56 4.05h-5.198l-1.68-4.05h5.318zm4.493 11.39l1.033 2.658h-5.017l-1.103-2.658h5.087zm-2.42 9.71c-.705-.02-2.262.278-2.262 3.052 0 2.892 2.352 3.138 3.103 3.142v1.338h-10.052v-1.353l.155.008c.887-.035 2.948-.41 2.948-3.135 0-2.647-1.478-3.008-2.17-3.04l-.09.008v-1.248h8.37v1.227zm.675 5.383c-.302-.027-.583-.075-.857-.137-.683-.252-1.313-.845-1.313-2.195 0-.982.243-1.628.67-1.978l1.5 4.308zm-51.438-4.622v.008l.237.03.457-.377v-.27l7.265-22.863c.407.197.875.292 1.198.328l-8.472 27.797-.043.003c-.5-.02-1.047-.14-1.472-.483l-.013-.012c-.425-.35-.723-.932-.723-1.872 0-1.003.242-2.215 1.333-2.275l.188.025.043-.04zm3.427-46.257l16.32 31.187-35.417-34.955 19.097 3.768zm34.618.04l-16.887 32.267-16.885-32.267h33.772zm-15.475 31.148l16.323-31.188 19.103-3.768-35.427 34.957zm11.607-8.943c-.208.108-.457.188-.7.238l.59-.583.11.343zm-24.363 1.38v-.182l.185.182h-.185zm-1.443 4.818l1.078-3.732h.083l.283-.283v-.035h.962l4.103 4.05h-6.508zm26.44 2.983l1.038 3.59h-29.378l1.038-3.59h10.393l2.485 2.452h1.543l2.487-2.452h10.393zm-2.488-7.802l.18-.178v.178h-.18zm.18.768v.035l.285.283h.082l1.078 3.732h-6.51l4.105-4.05h.96zm5.115 16.745l1.783 6.165h-36.483l1.783-6.165h32.917zm-32.138-2.695l.768-2.658h29.822l.768 2.658h-31.358zm-3.943 13.64l1.16-4.013h36.927l1.16 4.013v.678h-39.247v-.678zm6.707-30.192l.602.593c-.248-.052-.502-.132-.713-.245l.112-.348zm33.382 23.755v.273l.458.377.237-.03-.002-.005.045.037.133-.023c1.148.058 1.388 1.268 1.388 2.273 0 .935-.297 1.513-.713 1.865l-.048.037c-.417.328-.943.448-1.422.465l-.068-.003-8.472-27.797c.322-.037.783-.132 1.188-.323l7.275 22.857zm3.072-65.988l13.532 15.783-19.32 3.808-5.817-19.592h11.605zm-12.368 0l5.833 19.65h-34.003l5.652-19.65h22.518zm-23.282 0l-5.635 19.592-19.357-3.818 12.047-15.773h12.943zm48.947 68.413l1.795 4.69h-7.417v-1.477l-.01-.008-.012-.118-1.075-3.087h6.718zm2.667 5.003l.045-.067-2.088-5.458-.358-.247h-7.248l-.357-1.018.098-.022.303.028.477-.372v-2.035l-.13-.132-1.083-2.615h4.46l.383-.383v-1.927l-.072-.072.047-.067-1.332-3.427-.358-.243h-5.67l-1.488-3.59h4.52l.383-.383v-2.215l-.072-.072.047-.067-1.855-4.818-.358-.247h-5.9l-2.632-6.345-.262-.175h-1.23l20.833-20.557.058-1.502-.077-.088-14.047-16.383-.833-.383h-48.943l-.873.432-12.515 16.385-.067.088.102 1.452 20.828 20.557h-1.233l-.262.175-2.632 6.345h-5.895l-.357.243-1.892 4.818.047.068-.072.073v2.215l.383.383h4.552l-1.488 3.59h-5.623l-.357.243-1.363 3.427.047.068-.073.073v1.927l.383.383h4.448l-1.083 2.613-.132.133v2.035l.477.372.302-.028.1.022-.353 1.018h-7.198l-.358.245-2.135 5.458.047.067-.072.072v3.175l.383.383h78.365l.383-.383v-3.175l-.072-.07z" fill="#fff"/></svg>