<svg xmlns="http://www.w3.org/2000/svg" viewBox="0 0 100 100"><defs><clipPath><path d="M0 220h220v-220h-220v220z"/></clipPath></defs><path d="M32.76 6.25l-3.542 3.593 4.272 4.272 3.542-3.593-4.272-4.272zm34.583 0l-4.272 4.272 3.542 3.593 4.272-4.272-3.542-3.593zm-42.135.885l-3.438 3.49 13.385 13.385c2.299-1.159 7.216-1.035 3.389-3.539l-13.336-13.336zm49.688 0l-15.26 15.26c2.69.366 5.539 2.836 7.237-.309l11.461-11.461-3.438-3.49zm-41.875 2.397c2.587 1.674-2.591 1.668 0 0zm34.063 0c2.586 1.676-2.592 1.666 0 0zm-42.657 5.105l-9.843 9.843 4.272 4.272 9.843-9.843-4.272-4.272zm51.25 0l-4.272 4.272 9.897 9.843 4.272-4.272-9.897-9.843zm-32.188 2.343l-3.542 3.542c1.674 2.907 5.303.726 7.806.741-1.386-1.429-2.849-2.856-4.264-4.283zm13.125 0l-4.272 4.272c2.467.045 6.092 2.097 7.773-.689-1-1.188-2.367-2.396-3.501-3.583zm-12.865 3.282c2.588 1.675-2.592 1.667 0 0zm12.605 0c2.587 1.677-2.593 1.666 0 0zm-45.782 1.563l-3.49 3.438 11.772 11.772c.354-1.675 4.87-2.686 2.718-4.21l-11-11zm78.958 0l-11.823 11.875c1.68.737 3.174 4.582 4.642 2.283l10.671-10.72-3.49-3.438zm-39.48.677c-7.457.043-15.555 1.511-20.993 7.028-3.155 2.872-6.683 5.373-9.556 8.516-3.368 2.602-1.393 10.306 1.701 10.076 1.847.607 3.452 1.927 5.202 2.82l2.552-14.218-7.813 6.667c-2.322-.438 1.241-2.368 2.05-3.285l6.024-5.102c-.09-1.549-.669-3.133-.448-4.661 1.784-.31 1.037 2.898 1.548 4.21.687 1.203 2.443 1.742 3.541 2.689 2.253 1.963 5.407 1.837 8.141 2.683 4.19 1.333 8.605.823 12.932 1.04 2.85.164 5.456-1.399 8.195-2.019 2.293-.884 4.211-2.577 6.355-3.784.388-1.616.362-3.392 1.02-4.902 1.82.2.154 3.045.271 4.434-.022 1.388 2.379 1.625 3.337 2.547 2.258 1.438 4.848 2.506 6.89 4.182-.863 1.669-2.954-.909-4.318-1.317l-5.743-3.328 2.397 12.188c2.393-2.161 4.535-4.708 7.086-6.627 1.367 1.259-1.682 2.561-2.435 3.749-1.681 1.514-3.348 3.431-5.016 4.701-3.164 1.596-6.256 3.417-9.463 4.876l-12.515 1.685-.677 20.26 9.948-17.708c2.345-.518-.31 2.667-.789 3.8-2.393 4.219-4.786 8.439-7.18 12.658 9.281-9.484 18.623-18.932 27.866-28.439 3.369-3.106 2.692-8.833-1.019-11.334-3.974-3.333-7.791-6.912-11.878-10.065-5.133-3.081-11.32-3.953-17.212-4.019zm-40.313 6.772l-3.282 3.333 4.272 4.272 3.282-3.333-4.272-4.272zm80.625 0l-4.272 4.272 3.333 3.333 4.272-4.272-3.333-3.333zm-80.105 3.125c2.593 1.673-2.593 1.668 0 0zm79.583 0c2.588 1.677-2.598 1.664 0 0zm-59.635 3.802l-2.343 13.022 6.823-10.052c-1.493-.99-2.99-1.978-4.48-2.97zm39.48.208l-4.688 2.917 6.98 8.698-2.292-11.615zm-33.49 3.333l2.968 15.105c.429-1.108 1.883-5.037 2.351-2.429-.215 1.162-2.098 3.417-1.178 3.836h9.297l-4.167-13.022c-.852 1.29-.869 3.658-2.397 4.115-.703-1.445.999-3.109 1.363-4.638 1.208-1.678-2.018-1.131-2.964-1.728l-5.273-1.239zm27.343.26l-6.093 1.875 5.73 10.938c.19-1.187-.461-5.188 1.251-3.595l-.157 4.843 7.813-4.115-7.397-9.167c.616 2.29-1.683 3.613-1.198.654l.051-1.433zm-28.333.468l-7.5 11.093 10.468 4.323c-.989-5.138-1.979-10.281-2.968-15.416zm11.093 1.458l4.167 13.177 5.26-12.968c-3.142-.07-6.287-.137-9.427-.209zm10.365 1.042l-5.365 13.125 11.458-1.51-6.093-11.615zm-35.313 6.355c6.193 6.566 12.426 13.095 18.647 19.635-4.605-5.574-9.055-11.33-13.756-16.791l-4.891-2.844zm57.032 2.552l-3.542 3.542 4.272 4.272 3.542-3.542-4.272-4.272zm-56.563.105l-4.272 4.272 3.333 3.333 4.272-4.272-3.333-3.333zm6.875 1.25l18.49 22.76-8.647-18.698c-3.281-1.354-6.564-2.711-9.843-4.062zm-7.343 1.927c2.826 1.728-2.606 1.668 0 0zm57.292 0c2.586 1.674-2.59 1.667 0 0zm-52.708.73l-19.635 19.583 3.49 3.49 19.532-19.532c-1.129-1.179-2.257-2.366-3.387-3.541zm48.022 0l-3.385 3.542 19.635 19.635 3.438-3.438c-6.562-6.579-13.127-13.163-19.688-19.739zm-34.063 1.51l9.218 20.052.73-20.052h-9.948zm-9.948 2.708l-4.272 4.272 9.843 9.897 4.063-4.063c-3.197-3.381-6.474-6.695-9.634-10.106zm40.105.157l-9.897 9.843 4.323 4.272 9.843-9.843c-1.421-1.423-2.856-2.852-4.269-4.272zm19.115 2.397l-3.542 3.542 4.272 4.272 3.542-3.542-4.272-4.272zm-78.073.105l-4.272 4.272 3.282 3.333 4.272-4.272-3.282-3.333zm-.468 3.125c2.582 1.676-2.586 1.667 0 0zm78.802.052c2.775 1.737-2.712 1.64 0 0zm-29.948 4.792l-3.438 3.49 19.48 19.532 3.49-3.49-19.532-19.532zm-40.26.157l-4.272 4.272 9.843 9.843 4.272-4.272-9.843-9.843zm20.99.052l-19.218 19.218 3.49 3.438 19.115-19.115c-1.129-1.179-2.257-2.366-3.387-3.541zm40.573.052l-9.843 9.843 4.272 4.272 9.843-9.843-4.272-4.272zm-25.417 3.907c-1.103 1.12-2.187 2.258-3.282 3.385l4.272 4.218 3.282-3.333c-1.424-1.422-2.851-2.854-4.272-4.27zm-11.093.26l-3.907 3.907 3.542 3.542 3.802-3.802c-1.145-1.215-2.295-2.433-3.437-3.647zm-.052 2.76c2.587 1.676-2.591 1.666 0 0zm11.667.105c2.734 1.548-2.725 1.825 0 0zm-22.032 7.5l-4.272 4.272 3.542 3.593 4.272-4.272-3.542-3.593zm32.292.157l-3.333 3.282 4.272 4.272 3.333-3.282-4.272-4.272zm-32.657 3.022c2.845 1.882-2.892 1.502 0 0zm33.125.052c2.591 1.673-2.591 1.668 0 0z" fill="#fff"/></svg>