<svg xmlns="http://www.w3.org/2000/svg" viewBox="0 0 100 100"><defs><clipPath><path d="M0 220h220v-220h-220v220z"/></clipPath></defs><path d="M86.503 51.992l-20.303 14.048-20.303-14.048 20.303-14.05 20.303 14.05zm-43.867 22.265c-5.774-.283-9.677 7.067-6.217 11.696.429 2.29 6.37 3.512 5.466 3.307-8.04-.026-16.083.051-24.121-.039-5.752-.308-8.901-7.973-5.024-12.235 3.015-3.804 8.111-2.49 12.306-2.729h17.591zm1.697-61.277h21.637v21.162c-8.208 5.678-16.416 11.355-24.621 17.037-4.942.042-9.9-.085-14.831.064-1.034 1.226-.255 3.213-.497 4.758v14.998c-4.831.244-10.333-1.034-14.329 2.46-5.515 4.202-5.057 13.561.829 17.218 4.149 2.835 9.335 1.548 14.031 1.841 5.581-.044 11.17.088 16.745-.066 4.797-1.25 1.987-7.721-2.307-6.783-5.327-2.574-1.352-9.166 3.473-8.711 3.384-2.32.166-7.01-3.327-5.959h-13.487v-18.193h13.702c8.283 5.732 16.564 11.466 24.851 17.193 8.677-6.001 17.353-12.003 26.029-18.006-8.209-5.681-16.42-11.36-24.63-17.039v-21.97c4.821-.084 9.676.169 14.476-.128 1.751-1.31.712-3.849.994-5.758-.033-2.363.065-4.739-.047-7.094-1.345.186-3.892-.77-3.211 1.486v8.239h-33.848v-9.727c-1.395.191-3.951-.777-3.257 1.503.082 3.49-.167 7.014.128 10.483.242.592.861 1.004 1.502.994" fill="#fff"/></svg>