<svg xmlns="http://www.w3.org/2000/svg" viewBox="0 0 100 100"><defs><clipPath><path d="M0 220h220v-220h-220v220z"/></clipPath></defs><path d="M77.24 9.218c-7.427 0-13.533 5.818-14.01 13.125h-50.833l-.468.052-.365.105c-4.558.768-7.968 4.778-7.968 9.427 0 4.62 3.348 8.572 7.865 9.375.148.097.328.157.522.157h7.865v42.917c0 5.263 4.267 9.583 9.532 9.583h52.552c5.233-.01 9.48-4.327 9.48-9.583 0-5.263-4.267-9.532-9.532-9.532h-6.718v-37.708c.672.1 1.385.157 2.083.157 7.737 0 14.01-6.273 14.01-14.01s-6.273-14.063-14.01-14.063zm0 2.76c6.233 0 11.302 5.068 11.302 11.302 0 6.233-5.07 11.302-11.302 11.302-.703 0-1.415-.085-2.083-.208l-.208-.052c-.438-.09-.883-.173-1.302-.313-.462-.153-.92-.362-1.355-.573-3.203-1.558-5.56-4.562-6.198-8.177l-.052-.313-.052-.677c-.025-.33-.052-.653-.052-.99 0-.318.027-.625.052-.938.483-5.792 5.337-10.365 11.25-10.365zm-3.177 2.135v5.99h-5.99v6.303h5.99v5.99h6.302v-5.99h5.99v-6.302h-5.99v-5.99h-6.302zm-10.625 11.51c.845 4.955 4.262 9.048 8.855 10.782v48.073c.015 1.603.46 3.185 1.25 4.583.38.752.83 1.447 1.355 2.032h-45.522c-3.685 0-6.667-3.033-6.667-6.718v-42.917h42.917c.527 0 .938-.41.938-.938v-.99c0-.527-.412-.938-.938-.938-3.685 0-6.667-2.982-6.667-6.667 0-2.917 1.875-5.382 4.48-6.302zm18.438 52.083c3.685 0 6.667 2.98 6.667 6.667 0 3.683-3.003 6.718-6.667 6.718h-.052l-.105-.052c-2.537-.053-4.873-1.54-5.938-3.855-.453-1.128-.542-2.192-.573-2.605l-.052-.105v-1.928h2.343c.527 0 .938-.41.938-.938v-.468c0-1.882 1.555-3.438 3.438-3.438z" fill="#fff"/></svg>