<svg xmlns="http://www.w3.org/2000/svg" viewBox="0 0 100 100"><defs><clipPath><path d="M0 220h220v-220h-220v220z"/></clipPath></defs><path d="M14.323 17.657c-2.443 0-4.48 1.927-4.48 4.272v40.208c0 2.347 2.035 4.218 4.48 4.218h21.668v5.157c0 2.478-1.122 2.972-2.76 3.698-1.19.523-3.177 1.425-3.177 3.647v.105c-.002 1.038.018 2.243.99 3.177 1.158 1.117 2.57 1.093 6.772 1.093h23.593c6.187 0 8.542.023 8.542-4.375 0-1.995-1.652-3.123-2.968-4.01-1.832-1.237-2.968-2.125-2.968-4.167v-4.323h21.667c2.442 0 4.48-1.873 4.48-4.218v-40.208c0-2.343-2.038-4.272-4.48-4.272h-71.355zm32.917 1.615h4.74v1.667h-4.74v-1.667zm20.208 1.042l1.147 1.198-.677 1.407-.208-.052h-.105l-.157-.052-.417-.208c-.212-.123-.348-.388-.417-.73l-.052-.468v-.105l.052-.26v-.313l.833-.417zm-1.875.885v.208c0 .297.05.54.105.782v.157l.157.313.157.313.105.105c.122.147.25.267.417.365.288.172.587.295.885.365l.105.052-4.063 8.958-.313-.105h-.105c-.275-.07-.552-.113-.833-.157l-.26-.052c-.502-.063-.965-.1-1.25-.105-.307-.517-1.035-1.712-1.718-2.397-.338-.342-.842-.685-1.302-.99-.46-.305-.88-.572-1.147-.73.017-.347.012-.915-.052-1.51-.03-.28-.083-.558-.157-.833v-.105l-.052-.105-.052-.208 5.313-2.448 4.063-1.875zm-52.917 1.875h21.667l-5.468 5.522 1.718 1.718 1.98-1.98 1.093 1.042-2.032 1.98 2.552 2.5 3.958-3.958 1.042 1.042-3.958 4.01 2.5 2.5 1.98-1.98 1.093 1.042-2.032 1.98 1.407 1.407-6.042 6.042-.73.73-2.708 2.76-.105.052v.052l-3.438 3.385c-.493.492-.612 1.245-.365 1.875h-14.115v-31.718zm27.083 0h19.375l-3.385 1.563-.105.052-.782.365.052.105-6.51 6.51-8.647-8.593zm29.218 0h19.01v31.718h-16.51l-14.218-14.218 6.51-6.51.157.052.157-.365.417-.417-.157-.105 4.272-9.375.365-.782zm-13.647 3.022l.105.26.052.105.052.417c.04.295.052.6.052.938v.677l-.052.105-19.792 19.792c-.372-.462-.673-.888-.885-1.198l-.26-.365 20.73-20.73zm.938 3.125l.522.313.522.365c.372.255.728.52.99.782.193.195.382.465.573.73l.208.26.365.522.26.468-19.843 19.843c-.625-.54-1.297-1.087-1.927-1.718-.567-.565-1.097-1.133-1.563-1.667l19.897-19.897zm4.063 4.167h.105c.228-.002.602.017 1.042.052l.417.052c.318.037.647.085.938.157l-20.677 20.677-.573-.417c-.275-.197-.628-.492-.99-.782l19.74-19.74zm-7.292 11.407l.417.417-3.958 4.01 2.5 2.5 2.032-1.98 1.042 1.042-1.98 2.032 1.98 1.98h-12.083l10.052-10zm-18.907 2.605c.243.422.332.575 1.302 1.718.495.585 1.065 1.325 1.823 2.083.842.842 1.695 1.642 2.343 2.188 1.118.935 1.553 1.2 1.98 1.458l-2.448 2.397c-.428-.26-.707-.365-1.823-1.302-.65-.545-1.398-1.245-2.24-2.083-.758-.76-1.43-1.5-1.927-2.083-.97-1.143-1.265-1.608-1.51-2.032l2.5-2.343zm-3.022 2.968c.313.48.767 1.06 1.458 1.875.558.658 1.173 1.335 1.875 2.032.767.77 1.55 1.515 2.292 2.135.86.722 1.415 1.153 1.875 1.458l-3.23 3.23c-.303.302-.79.302-1.093 0l-6.407-6.407c-.145-.147-.26-.363-.26-.573 0-.208.115-.375.26-.522l3.23-3.23zm2.968.313c.038.37.122.598.365.833l1.563 1.51 1.615 1.51c.25.228.463.292.833.313-.038-.37-.072-.597-.313-.833-.258-.257-1.615-1.51-1.615-1.51s-1.293-1.263-1.563-1.51c-.25-.228-.515-.29-.885-.313zm25.468.625l1.042 1.042-2.397 2.448h-2.083l3.438-3.49zm-9.532 5.417c2.045 0 3.698 1.615 3.698 3.593s-1.655 3.593-3.698 3.593-3.698-1.617-3.698-3.593c0-1.978 1.655-3.593 3.698-3.593zm-11.823 9.635h23.648v4.323c0 .502.065.932.157 1.355h-4.115v1.147h4.427c1.44 3.152 5.417 3.823 5.417 5.677 0 2.267-.02 2.24-6.302 2.24h-23.593c-5.642 0-5.522.027-5.522-2.24h29.115v-1.147h-28.333c1.595-.99 5.105-1.415 5.105-6.198v-5.157z" fill="#fff"/></svg>