<svg xmlns="http://www.w3.org/2000/svg" viewBox="0 0 100 100"><path d="M8.125 15.26c-.753 0-1.407.6-1.407 1.407s.653 1.407 1.407 1.407c.753 0 1.407-.6 1.407-1.407s-.653-1.407-1.407-1.407zm2.292 0v2.813h.677v-2.813h-.677zm2.605 0c-.753 0-1.407.6-1.407 1.407s.653 1.407 1.407 1.407c.753 0 1.407-.6 1.407-1.407s-.653-1.407-1.407-1.407zm2.343 0v2.813h.625v-2.813h-.625zm1.093 0l1.458 2.865 1.407-2.865h-.73l-.677 1.772-.677-1.772h-.782zm4.48 0c-.753 0-1.407.6-1.407 1.407s.653 1.407 1.407 1.407c.753 0 1.407-.6 1.407-1.407s-.653-1.407-1.407-1.407zm2.343 0v2.813h.625v-2.813h-.625zm1.147 0l1.458 2.865 1.407-2.865h-.73l-.677 1.772-.677-1.772h-.782zm4.427 0c-.753 0-1.407.6-1.407 1.407s.653 1.407 1.407 1.407c.753 0 1.407-.6 1.407-1.407s-.653-1.407-1.407-1.407zm2.343 0v2.813h.677v-2.813h-.677zm1.407 0l1.458 2.865 1.407-2.865h-.73l-.677 1.772-.677-1.772h-.782zm-24.48.73c.423 0 .73.307.73.677 0 .372-.305.73-.73.73-.423 0-.73-.358-.73-.73s.305-.677.73-.677zm4.897 0c.423 0 .782.307.782.677 0 .372-.357.73-.782.73-.423 0-.677-.358-.677-.73s.253-.677.677-.677zm7.917 0c.423 0 .782.307.782.677 0 .372-.357.73-.782.73-.423 0-.677-.358-.677-.73s.253-.677.677-.677zm7.917 0c.423 0 .782.307.782.677 0 .372-.357.73-.782.73-.423 0-.677-.358-.677-.73s.253-.677.677-.677zm8.593 5.573v3.542h56.25v-3.542h-56.25zm-29.323.73c-.753 0-1.407.6-1.407 1.407s.653 1.407 1.407 1.407c.753 0 1.407-.6 1.407-1.407s-.653-1.407-1.407-1.407zm2.292 0v2.813h.677v-2.813h-.677zm2.605 0c-.753 0-1.407.6-1.407 1.407s.653 1.407 1.407 1.407c.753 0 1.407-.6 1.407-1.407s-.653-1.407-1.407-1.407zm2.343 0v2.813h.625v-2.813h-.625zm1.093 0l1.458 2.865 1.407-2.865h-.73l-.677 1.772-.677-1.772h-.782zm4.48 0c-.753 0-1.407.6-1.407 1.407s.653 1.407 1.407 1.407c.753 0 1.407-.6 1.407-1.407s-.653-1.407-1.407-1.407zm2.343 0v2.813h.625v-2.813h-.625zm1.147 0l1.458 2.865 1.407-2.865h-.73l-.677 1.772-.677-1.772h-.782zm4.427 0c-.753 0-1.407.6-1.407 1.407s.653 1.407 1.407 1.407c.753 0 1.407-.6 1.407-1.407s-.653-1.407-1.407-1.407zm2.343 0v2.813h.677v-2.813h-.677zm1.407 0l1.458 2.865 1.407-2.865h-.73l-.677 1.772-.677-1.772h-.782zm-24.48.73c.423 0 .73.307.73.677 0 .372-.305.73-.73.73-.423 0-.73-.358-.73-.73s.305-.677.73-.677zm4.897 0c.423 0 .782.307.782.677 0 .372-.357.73-.782.73-.423 0-.677-.358-.677-.73s.253-.677.677-.677zm7.917 0c.423 0 .782.307.782.677 0 .372-.357.73-.782.73-.423 0-.677-.358-.677-.73s.253-.677.677-.677zm7.917 0c.423 0 .782.307.782.677 0 .372-.357.73-.782.73-.423 0-.677-.358-.677-.73s.253-.677.677-.677zm29.688 7.708l17.343 11.25 16.875-11.25h-34.218zm-.26.365v22.865l17.032-11.458-17.032-11.407zm34.948 0l-17.032 11.407 17.032 11.458v-22.865zm-86.042.052l9.688 6.25 9.427-6.25h-19.115zm24.583 0l9.635 6.25 9.427-6.25h-19.063zm-24.688.208v12.76l9.48-6.407-9.48-6.355zm19.48 0l-9.48 6.355 9.48 6.407v-12.76zm5.052 0v12.76l9.48-6.407-9.48-6.355zm19.48 0l-9.48 6.355 9.48 6.407v-12.76zm-34.167 6.615l-9.48 6.302h18.593l-9.115-6.302zm24.532 0l-9.48 6.302h18.593l-9.115-6.302zm34.532 5.052l-17.032 11.25h33.333l-16.302-11.25zm-42.917 5.573c-.753 0-1.407.6-1.407 1.407s.653 1.407 1.407 1.407c.753 0 1.407-.6 1.407-1.407s-.653-1.407-1.407-1.407zm2.343 0v2.813h.625v-2.813h-.625zm2.605 0c-.753 0-1.407.6-1.407 1.407s.653 1.407 1.407 1.407c.753 0 1.355-.6 1.355-1.407s-.6-1.407-1.355-1.407zm2.292 0v2.813h.677v-2.813h-.677zm1.093 0l1.458 2.865 1.407-2.865h-.73l-.677 1.772-.677-1.772h-.782zm4.532 0c-.753 0-1.407.6-1.407 1.407s.653 1.407 1.407 1.407c.753 0 1.355-.6 1.355-1.407s-.6-1.407-1.355-1.407zm2.292 0v2.813h.677v-2.813h-.677zm-40.105.365c-.753 0-1.407.6-1.407 1.407s.653 1.407 1.407 1.407c.753 0 1.407-.6 1.407-1.407s-.653-1.407-1.407-1.407zm2.292 0v2.813h.677v-2.813h-.677zm2.605 0c-.753 0-1.407.6-1.407 1.407s.653 1.407 1.407 1.407c.753 0 1.407-.6 1.407-1.407s-.653-1.407-1.407-1.407zm2.343 0v2.813h.625v-2.813h-.625zm1.093 0l1.458 2.865 1.407-2.865h-.73l-.677 1.772-.677-1.772h-.782zm4.48 0c-.753 0-1.407.6-1.407 1.407s.653 1.407 1.407 1.407c.753 0 1.407-.6 1.407-1.407s-.653-1.407-1.407-1.407zm2.343 0v2.813h.625v-2.813h-.625zm9.792.365c.423 0 .782.307.782.677 0 .372-.357.73-.782.73-.423 0-.677-.358-.677-.73s.253-.677.677-.677zm4.948 0c.423 0 .73.307.73.677 0 .372-.305.73-.73.73-.423 0-.73-.358-.73-.73s.305-.677.73-.677zm7.917 0c.423 0 .73.307.73.677 0 .372-.305.73-.73.73-.423 0-.73-.358-.73-.73s.305-.677.73-.677zm-37.813.365c.423 0 .73.307.73.677 0 .372-.305.73-.73.73-.423 0-.73-.358-.73-.73s.305-.677.73-.677zm4.897 0c.423 0 .782.307.782.677 0 .372-.357.73-.782.73-.423 0-.677-.358-.677-.73s.253-.677.677-.677zm7.917 0c.423 0 .782.307.782.677 0 .372-.357.73-.782.73-.423 0-.677-.358-.677-.73s.253-.677.677-.677zm-13.907 5.208v.885h19.48v-.885h-19.48zm25 0v.885h19.48v-.885h-19.48zm-25 2.813v.833h19.48v-.833h-19.48zm25 0v.833h19.48v-.833h-19.48zm26.25.677v6.772h34.897v-6.772h-34.897zm-51.25 2.083v.885h19.48v-.885h-19.48zm25 0v.885h19.48v-.885h-19.48zm.99 12.76v11.927h.417v-11.927h-.417zm32.968 0v11.927h.468v-11.927h-.468zm-57.343.26c-.753 0-1.407.652-1.407 1.458 0 .807.653 1.407 1.407 1.407.753 0 1.407-.6 1.407-1.407s-.653-1.458-1.407-1.458zm2.292 0v2.865h.677v-2.865h-.677zm2.605 0c-.753 0-1.407.652-1.407 1.458 0 .807.653 1.407 1.407 1.407.753 0 1.407-.6 1.407-1.407s-.653-1.458-1.407-1.458zm2.292 0v2.865h.677v-2.865h-.677zm1.147 0l1.458 2.865 1.407-2.865h-.73l-.677 1.823-.677-1.823h-.782zm4.48 0c-.753 0-1.407.652-1.407 1.458 0 .807.653 1.407 1.407 1.407.753 0 1.407-.6 1.407-1.407s-.653-1.458-1.407-1.458zm2.343 0v2.865h.625v-2.865h-.625zm18.177 0c-.753 0-1.407.652-1.407 1.458 0 .807.653 1.407 1.407 1.407.753 0 1.407-.6 1.407-1.407s-.653-1.458-1.407-1.458zm2.292 0v2.865h.677v-2.865h-.677zm2.605 0c-.753 0-1.407.652-1.407 1.458 0 .807.653 1.407 1.407 1.407.753 0 1.407-.6 1.407-1.407s-.653-1.458-1.407-1.458zm2.292 0v2.865h.677v-2.865h-.677zm1.147 0l1.458 2.865 1.407-2.865h-.73l-.677 1.823-.677-1.823h-.782zm4.48 0c-.753 0-1.407.652-1.407 1.458 0 .807.653 1.407 1.407 1.407.753 0 1.407-.6 1.407-1.407s-.653-1.458-1.407-1.458zm2.343 0v2.865h.625v-2.865h-.625zm18.177 0c-.753 0-1.407.652-1.407 1.458 0 .807.653 1.407 1.407 1.407.753 0 1.407-.6 1.407-1.407s-.653-1.458-1.407-1.458zm2.292 0v2.865h.677v-2.865h-.677zm2.605 0c-.753 0-1.407.652-1.407 1.458 0 .807.653 1.407 1.407 1.407.753 0 1.407-.6 1.407-1.407s-.653-1.458-1.407-1.458zm2.292 0v2.865h.677v-2.865h-.677zm1.147 0l1.458 2.865 1.407-2.865h-.73l-.677 1.823-.677-1.823h-.782zm4.48 0c-.753 0-1.407.652-1.407 1.458 0 .807.653 1.407 1.407 1.407.753 0 1.407-.6 1.407-1.407s-.653-1.458-1.407-1.458zm2.343 0v2.865h.625v-2.865h-.625zm-81.823.73c.423 0 .73.358.73.73s-.305.677-.73.677c-.423 0-.73-.307-.73-.677 0-.372.305-.73.73-.73zm4.897 0c.423 0 .782.358.782.73s-.357.677-.782.677c-.423 0-.677-.307-.677-.677 0-.372.253-.73.677-.73zm7.917 0c.423 0 .782.358.782.73s-.357.677-.782.677c-.423 0-.677-.307-.677-.677 0-.372.253-.73.677-.73zm20.522 0c.423 0 .73.358.73.73s-.305.677-.73.677c-.423 0-.73-.307-.73-.677 0-.372.305-.73.73-.73zm4.897 0c.423 0 .782.358.782.73s-.357.677-.782.677c-.423 0-.677-.307-.677-.677 0-.372.253-.73.677-.73zm7.917 0c.423 0 .782.358.782.73s-.357.677-.782.677c-.423 0-.677-.307-.677-.677 0-.372.253-.73.677-.73zm20.522 0c.423 0 .73.358.73.73s-.305.677-.73.677c-.423 0-.73-.307-.73-.677 0-.372.305-.73.73-.73zm4.897 0c.423 0 .782.358.782.73s-.357.677-.782.677c-.423 0-.677-.307-.677-.677 0-.372.253-.73.677-.73zm7.917 0c.423 0 .782.358.782.73s-.357.677-.782.677c-.423 0-.677-.307-.677-.677 0-.372.253-.73.677-.73zm-80.573 5.26v.833h19.48v-.833h-19.48zm33.333 0v.833h19.48v-.833h-19.48zm33.333 0v.833h19.48v-.833h-19.48zm-66.667 2.76v.885h19.48v-.885h-19.48zm33.333 0v.885h19.48v-.885h-19.48zm33.333 0v.885h19.48v-.885h-19.48zm-66.667 2.813v.833h19.48v-.833h-19.48zm33.333 0v.833h19.48v-.833h-19.48zm33.333 0v.833h19.48v-.833h-19.48z" fill="#fff"/></svg>